<svg xmlns="http://www.w3.org/2000/svg" width="25" height="25" viewBox="0 0 25 25" fill="none">
<g clip-path="url(#clip0_1108_1515)">
<path fill-rule="evenodd" clip-rule="evenodd" d="M4.5 13.5C5.05228 13.5 5.5 13.9477 5.5 14.5V21.5C5.5 22.0523 5.05228 22.5 4.5 22.5C3.94772 22.5 3.5 22.0523 3.5 21.5V14.5C3.5 13.9477 3.94772 13.5 4.5 13.5Z" fill="black"/>
<path fill-rule="evenodd" clip-rule="evenodd" d="M4.5 2.5C5.05228 2.5 5.5 2.94772 5.5 3.5V10.5C5.5 11.0523 5.05228 11.5 4.5 11.5C3.94772 11.5 3.5 11.0523 3.5 10.5V3.5C3.5 2.94772 3.94772 2.5 4.5 2.5Z" fill="black"/>
<path fill-rule="evenodd" clip-rule="evenodd" d="M12.5 11.5C13.0523 11.5 13.5 11.9477 13.5 12.5V21.5C13.5 22.0523 13.0523 22.5 12.5 22.5C11.9477 22.5 11.5 22.0523 11.5 21.5V12.5C11.5 11.9477 11.9477 11.5 12.5 11.5Z" fill="black"/>
<path fill-rule="evenodd" clip-rule="evenodd" d="M12.5 2.5C13.0523 2.5 13.5 2.94772 13.5 3.5V8.5C13.5 9.05228 13.0523 9.5 12.5 9.5C11.9477 9.5 11.5 9.05228 11.5 8.5V3.5C11.5 2.94772 11.9477 2.5 12.5 2.5Z" fill="black"/>
<path fill-rule="evenodd" clip-rule="evenodd" d="M20.5 15.5C21.0523 15.5 21.5 15.9477 21.5 16.5V21.5C21.5 22.0523 21.0523 22.5 20.5 22.5C19.9477 22.5 19.5 22.0523 19.5 21.5V16.5C19.5 15.9477 19.9477 15.5 20.5 15.5Z" fill="black"/>
<path fill-rule="evenodd" clip-rule="evenodd" d="M20.5 2.5C21.0523 2.5 21.5 2.94772 21.5 3.5V12.5C21.5 13.0523 21.0523 13.5 20.5 13.5C19.9477 13.5 19.5 13.0523 19.5 12.5V3.5C19.5 2.94772 19.9477 2.5 20.5 2.5Z" fill="black"/>
<path fill-rule="evenodd" clip-rule="evenodd" d="M0.5 14.5C0.5 13.9477 0.947715 13.5 1.5 13.5H7.5C8.05228 13.5 8.5 13.9477 8.5 14.5C8.5 15.0523 8.05228 15.5 7.5 15.5H1.5C0.947715 15.5 0.5 15.0523 0.5 14.5Z" fill="black"/>
<path fill-rule="evenodd" clip-rule="evenodd" d="M8.5 8.5C8.5 7.94772 8.94772 7.5 9.5 7.5H15.5C16.0523 7.5 16.5 7.94772 16.5 8.5C16.5 9.05228 16.0523 9.5 15.5 9.5H9.5C8.94772 9.5 8.5 9.05228 8.5 8.5Z" fill="black"/>
<path fill-rule="evenodd" clip-rule="evenodd" d="M16.5 16.5C16.5 15.9477 16.9477 15.5 17.5 15.5H23.5C24.0523 15.5 24.5 15.9477 24.5 16.5C24.5 17.0523 24.0523 17.5 23.5 17.5H17.5C16.9477 17.5 16.5 17.0523 16.5 16.5Z" fill="black"/>
</g>
<defs>
<clipPath id="clip0_1108_1515">
<rect width="24" height="24" fill="white" transform="translate(0.5 0.5)"/>
</clipPath>
</defs>
</svg>