<svg xmlns="http://www.w3.org/2000/svg" width="24" height="24" viewBox="0 0 24 24" fill="none">
<path fill-rule="evenodd" clip-rule="evenodd" d="M12 2C12.6136 2 13.1111 2.49746 13.1111 3.11111V10.8889H20.8889C21.5025 10.8889 22 11.3863 22 12C22 12.6136 21.5025 13.1111 20.8889 13.1111H13.1111V20.8889C13.1111 21.5025 12.6136 22 12 22C11.3863 22 10.8889 21.5025 10.8889 20.8889V13.1111H3.11111C2.49746 13.1111 2 12.6136 2 12C2 11.3863 2.49746 10.8889 3.11111 10.8889H10.8889V3.11111C10.8889 2.49746 11.3863 2 12 2Z" fill="black"/>
</svg>