<svg xmlns="http://www.w3.org/2000/svg" width="15" height="15" viewBox="0 0 15 15" fill="none">
    <path  fill="white" d="M12.5999 3.125C11.9374 2.46075 11.0592 2.05533 10.1239 1.98198C9.1886 1.90862 8.25791 2.17216 7.49993 2.725C6.70471 2.13352 5.71492 1.86532 4.72988 1.97439C3.74483 2.08347 2.8377 2.56173 2.19116 3.31286C1.54462 4.06399 1.20669 5.0322 1.24543 6.0225C1.28417 7.01281 1.69669 7.95166 2.39993 8.65L6.28118 12.5375C6.60619 12.8574 7.04392 13.0366 7.49993 13.0366C7.95594 13.0366 8.39367 12.8574 8.71868 12.5375L12.5999 8.65C13.3297 7.91579 13.7393 6.92267 13.7393 5.8875C13.7393 4.85233 13.3297 3.8592 12.5999 3.125ZM11.7187 7.7875L7.83743 11.6687C7.79326 11.7133 7.7407 11.7487 7.68277 11.7729C7.62484 11.7971 7.56269 11.8095 7.49993 11.8095C7.43716 11.8095 7.37502 11.7971 7.31709 11.7729C7.25916 11.7487 7.20659 11.7133 7.16243 11.6687L3.28118 7.76875C2.79103 7.26771 2.51656 6.59466 2.51656 5.89375C2.51656 5.19283 2.79103 4.51978 3.28118 4.01875C3.78065 3.52561 4.45429 3.2491 5.15618 3.2491C5.85807 3.2491 6.53171 3.52561 7.03118 4.01875C7.08928 4.07733 7.15841 4.12382 7.23457 4.15555C7.31073 4.18728 7.39242 4.20362 7.47493 4.20362C7.55744 4.20362 7.63913 4.18728 7.71529 4.15555C7.79145 4.12382 7.86058 4.07733 7.91868 4.01875C8.41815 3.52561 9.09179 3.2491 9.79368 3.2491C10.4956 3.2491 11.1692 3.52561 11.6687 4.01875C12.1656 4.51321 12.449 5.18262 12.4584 5.88355C12.4677 6.58448 12.2022 7.26121 11.7187 7.76875V7.7875Z"/>
    <path class="heart_path_fill" fill="none" d="M13.025 2.88125C12.7057 2.56187 12.3267 2.30853 11.9095 2.13567C11.4924 1.96282 11.0453 1.87386 10.5937 1.87386C10.1421 1.87386 9.69502 1.96282 9.27785 2.13567C8.86069 2.30853 8.48168 2.56187 8.16245 2.88125L7.49995 3.54375L6.83745 2.88125C6.19264 2.23644 5.3181 1.87419 4.4062 1.87419C3.49431 1.87419 2.61976 2.23644 1.97495 2.88125C1.33014 3.52605 0.967896 4.4006 0.967896 5.3125C0.967896 6.22439 1.33014 7.09894 1.97495 7.74375L2.63745 8.40625L7.49995 13.2687L12.3625 8.40625L13.025 7.74375C13.3443 7.42452 13.5977 7.04551 13.7705 6.62834C13.9434 6.21118 14.0323 5.76405 14.0323 5.3125C14.0323 4.86094 13.9434 4.41381 13.7705 3.99665C13.5977 3.57949 13.3443 3.20047 13.025 2.88125Z"/>
</svg>