<svg width="24" height="24" viewBox="0 0 24 24" fill="none" xmlns="http://www.w3.org/2000/svg">
    <path class="outline_stroke" d="M6 2L3 6V20C3 20.5304 3.21071 21.0391 3.58579 21.4142C3.96086 21.7893 4.46957 22 5 22H19C19.5304 22 20.0391 21.7893 20.4142 21.4142C20.7893 21.0391 21 20.5304 21 20V6L18 2H6Z" stroke="#1F2024" stroke-width="2" stroke-linecap="round" stroke-linejoin="round"/>
    <path class="outline_stroke" d="M3 6H21" stroke="#1F2024" stroke-width="2" stroke-linecap="round" stroke-linejoin="round"/>
    <path class="outline_stroke" d="M16 10C16 11.0609 15.5786 12.0783 14.8284 12.8284C14.0783 13.5786 13.0609 14 12 14C10.9391 14 9.92172 13.5786 9.17157 12.8284C8.42143 12.0783 8 11.0609 8 10" stroke="#1F2024" stroke-width="2" stroke-linecap="round" stroke-linejoin="round"/>
    <path class="fillness_path" fill-rule="evenodd" clip-rule="evenodd" d="M6 2L3.75 5H20.25L18 2H6ZM3 20V7H21V20C21 20.5304 20.7893 21.0391 20.4142 21.4142C20.0391 21.7893 19.5304 22 19 22H5C4.46957 22 3.96086 21.7893 3.58579 21.4142C3.21071 21.0391 3 20.5304 3 20ZM9 10C9 9.44772 8.55228 9 8 9C7.44772 9 7 9.44772 7 10C7 11.3261 7.52678 12.5979 8.46447 13.5355C9.40215 14.4732 10.6739 15 12 15C13.3261 15 14.5979 14.4732 15.5355 13.5355C16.4732 12.5979 17 11.3261 17 10C17 9.44772 16.5523 9 16 9C15.4477 9 15 9.44772 15 10C15 10.7956 14.6839 11.5587 14.1213 12.1213C13.5587 12.6839 12.7956 13 12 13C11.2044 13 10.4413 12.6839 9.87868 12.1213C9.31607 11.5587 9 10.7956 9 10Z" fill="#1F2024"/>
</svg>
