<svg width="25" height="24" viewBox="0 0 25 24" fill="none" xmlns="http://www.w3.org/2000/svg">
<g clip-path="url(#clip0_783_1402)">
<path fill-rule="evenodd" clip-rule="evenodd" d="M7.5 21C7.5 19.8954 8.39543 19 9.5 19C10.6046 19 11.5 19.8954 11.5 21C11.5 22.1046 10.6046 23 9.5 23C8.39543 23 7.5 22.1046 7.5 21Z" fill="#1F2024"/>
<path fill-rule="evenodd" clip-rule="evenodd" d="M18.5 21C18.5 19.8954 19.3954 19 20.5 19C21.6046 19 22.5 19.8954 22.5 21C22.5 22.1046 21.6046 23 20.5 23C19.3954 23 18.5 22.1046 18.5 21Z" fill="#1F2024"/>
<path fill-rule="evenodd" clip-rule="evenodd" d="M0.5 1C0.5 0.447715 0.947715 0 1.5 0H5.5C5.97663 0 6.38701 0.336385 6.48055 0.803743L7.32043 5H23.5C23.798 5 24.0805 5.13293 24.2705 5.36256C24.4605 5.59218 24.5381 5.89458 24.4823 6.18733L22.8809 14.5848C22.7437 15.2754 22.368 15.8958 21.8195 16.3373C21.2738 16.7766 20.5916 17.011 19.8914 17H10.1886C9.48837 17.011 8.8062 16.7766 8.26048 16.3373C7.71225 15.8959 7.33664 15.2759 7.19933 14.5857C7.19927 14.5854 7.19939 14.5859 7.19933 14.5857L5.52879 6.2392C5.52201 6.21159 5.51638 6.18353 5.51195 6.15508L4.68032 2H1.5C0.947715 2 0.5 1.55228 0.5 1ZM7.72073 7L9.16084 14.1952C9.20656 14.4254 9.33179 14.6322 9.51461 14.7793C9.69743 14.9265 9.92619 15.0047 10.1608 15.0002L10.18 15H19.9L19.9192 15.0002C20.1538 15.0047 20.3826 14.9265 20.5654 14.7793C20.7474 14.6328 20.8723 14.4273 20.9185 14.1984L22.2913 7H7.72073Z" fill="#1F2024"/>
</g>
<defs>
<clipPath id="clip0_783_1402">
<rect width="24" height="24" fill="white" transform="translate(0.5)"/>
</clipPath>
</defs>
</svg>
