<svg width="24" height="24" viewBox="0 0 24 18" fill="none" xmlns="http://www.w3.org/2000/svg">
    <path class="outline_path" d="M18.66 2.00001C17.6 0.93722 16.1948 0.288553 14.6984 0.171183C13.2019 0.0538127 11.7128 0.475479 10.5 1.36001C9.22769 0.41365 7.64402 -0.0154759 6.06795 0.15905C4.49188 0.333576 3.04047 1.09879 2.006 2.3006C0.971538 3.5024 0.430854 5.05153 0.492833 6.63603C0.554811 8.22052 1.21485 9.72268 2.34003 10.84L8.55003 17.06C9.07005 17.5718 9.77042 17.8586 10.5 17.8586C11.2296 17.8586 11.93 17.5718 12.45 17.06L18.66 10.84C19.8276 9.66528 20.483 8.07629 20.483 6.42001C20.483 4.76374 19.8276 3.17475 18.66 2.00001ZM17.25 9.46001L11.04 15.67C10.9694 15.7414 10.8853 15.798 10.7926 15.8367C10.6999 15.8753 10.6005 15.8952 10.5 15.8952C10.3996 15.8952 10.3002 15.8753 10.2075 15.8367C10.1148 15.798 10.0307 15.7414 9.96003 15.67L3.75003 9.43001C2.96579 8.62836 2.52664 7.55148 2.52664 6.43001C2.52664 5.30855 2.96579 4.23167 3.75003 3.43001C4.54919 2.641 5.627 2.19858 6.75003 2.19858C7.87306 2.19858 8.95088 2.641 9.75003 3.43001C9.84299 3.52374 9.9536 3.59814 10.0755 3.6489C10.1973 3.69967 10.328 3.72581 10.46 3.72581C10.592 3.72581 10.7227 3.69967 10.8446 3.6489C10.9665 3.59814 11.0771 3.52374 11.17 3.43001C11.9692 2.641 13.047 2.19858 14.17 2.19858C15.2931 2.19858 16.3709 2.641 17.17 3.43001C17.9651 4.22116 18.4186 5.2922 18.4336 6.4137C18.4485 7.53519 18.0237 8.61795 17.25 9.43001V9.46001Z" fill="#1F2024"/>
    <path class="fillness_path" style="transform: translateY(-2px) translateX(-2px)" d="M21.34 4.60999C20.8292 4.099 20.2228 3.69364 19.5554 3.41708C18.8879 3.14052 18.1725 2.99817 17.45 2.99817C16.7275 2.99817 16.0121 3.14052 15.3446 3.41708C14.6772 3.69364 14.0708 4.099 13.56 4.60999L12.5 5.66999L11.44 4.60999C10.4083 3.5783 9.00903 2.9987 7.55 2.9987C6.09096 2.9987 4.69169 3.5783 3.66 4.60999C2.6283 5.64169 2.04871 7.04096 2.04871 8.49999C2.04871 9.95903 2.6283 11.3583 3.66 12.39L4.72 13.45L12.5 21.23L20.28 13.45L21.34 12.39C21.851 11.8792 22.2563 11.2728 22.5329 10.6053C22.8095 9.93789 22.9518 9.22248 22.9518 8.49999C22.9518 7.77751 22.8095 7.0621 22.5329 6.39464C22.2563 5.72718 21.851 5.12075 21.34 4.60999Z" fill="#1F2024"/>
</svg>
