<svg xmlns="http://www.w3.org/2000/svg" width="17" height="18" viewBox="0 0 17 18" fill="none">
<path d="M2.53516 4.86719H3.91276H14.9336" stroke="#1F2024" stroke-width="1.3776" stroke-linecap="round" stroke-linejoin="round"/>
<path d="M13.5559 4.86726V14.5105C13.5559 14.8758 13.4108 15.2262 13.1524 15.4846C12.8941 15.7429 12.5437 15.8881 12.1783 15.8881H5.29032C4.92496 15.8881 4.57456 15.7429 4.31621 15.4846C4.05786 15.2262 3.91272 14.8758 3.91272 14.5105V4.86726M5.97912 4.86726V3.48966C5.97912 3.1243 6.12426 2.7739 6.38261 2.51555C6.64096 2.2572 6.99136 2.11206 7.35672 2.11206H10.1119C10.4773 2.11206 10.8277 2.2572 11.086 2.51555C11.3444 2.7739 11.4895 3.1243 11.4895 3.48966V4.86726" stroke="#1F2024" stroke-width="1.3776" stroke-linecap="round" stroke-linejoin="round"/>
<path d="M7.35669 8.31128V12.4441" stroke="#1F2024" stroke-width="1.3776" stroke-linecap="round" stroke-linejoin="round"/>
<path d="M10.1119 8.31128V12.4441" stroke="#1F2024" stroke-width="1.3776" stroke-linecap="round" stroke-linejoin="round"/>
</svg>