<svg xmlns="http://www.w3.org/2000/svg" width="29" height="19" viewBox="0 0 29 19" fill="none">
<path d="M10.5787 16.6328H18.42V2.53101H10.5787V16.6328Z" fill="#FF5F00"/>
<path d="M11.0769 9.50007C11.0769 6.63507 12.4212 4.09365 14.487 2.44919C12.9688 1.25323 11.0523 0.531006 8.96121 0.531006C4.00762 0.531006 0 4.54213 0 9.50007C0 14.458 4.00762 18.4691 8.96121 18.4691C11.0523 18.4691 12.9688 17.7469 14.487 16.5509C12.4212 14.9317 11.0769 12.3651 11.0769 9.50007Z" fill="#EB001B"/>
<path d="M29.0001 9.50007C29.0001 14.458 24.9925 18.4691 20.0389 18.4691C17.9478 18.4691 16.0313 17.7469 14.5131 16.5509C16.6042 14.9065 17.9233 12.3651 17.9233 9.50007C17.9233 6.63507 16.579 4.09365 14.5131 2.44919C16.0306 1.25323 17.9478 0.531006 20.0389 0.531006C24.9925 0.531006 29.0001 4.56739 29.0001 9.50007Z" fill="#F79E1B"/>
</svg>