<svg width="14" height="17" viewBox="0 0 14 17" fill="none" xmlns="http://www.w3.org/2000/svg">
<rect width="14" height="17" fill="#1E1E1E"/>
<g id="&#208;&#162;&#208;&#190;&#208;&#178;&#208;&#176;&#209;&#128;&#209;&#139; &#208;&#184; &#208;&#190;&#209;&#132;&#208;&#190;&#209;&#128;&#208;&#188;&#208;&#187;&#208;&#181;&#208;&#189;&#208;&#184;&#208;&#181; &#208;&#183;&#208;&#176;&#208;&#186;&#208;&#176;&#208;&#183;&#208;&#176;">
<path d="M-2055 -311C-2055 -312.105 -2054.1 -313 -2053 -313H1324C1325.1 -313 1326 -312.105 1326 -311V663C1326 664.105 1325.1 665 1324 665H-2053C-2054.1 665 -2055 664.105 -2055 663V-311Z" fill="#444444"/>
<path d="M-2053 -312H1324V-314H-2053V-312ZM1325 -311V663H1327V-311H1325ZM1324 664H-2053V666H1324V664ZM-2054 663V-311H-2056V663H-2054ZM-2053 664C-2053.55 664 -2054 663.552 -2054 663H-2056C-2056 664.657 -2054.66 666 -2053 666V664ZM1325 663C1325 663.552 1324.55 664 1324 664V666C1325.66 666 1327 664.657 1327 663H1325ZM1324 -312C1324.55 -312 1325 -311.552 1325 -311H1327C1327 -312.657 1325.66 -314 1324 -314V-312ZM-2053 -314C-2054.66 -314 -2056 -312.657 -2056 -311H-2054C-2054 -311.552 -2053.55 -312 -2053 -312V-314Z" fill="white" fill-opacity="0.1"/>
<g id="Frame 303">
<g id="Frame 302">
<path d="M-78 -184C-78 -189.523 -73.5228 -194 -68 -194H305C310.523 -194 315 -189.523 315 -184V130.817H-78V-184Z" fill="white"/>
<g id="Frame 301">
<g id="Frame 300">
<g id="Frame 297">
<rect x="-58" y="-52" width="353" height="81" rx="5" fill="#F2F2F2"/>
<g id="Frame 296">
<g id="Frame 295">
<g id="Frame 293">
<g id="Frame 289">
<rect width="44" height="25" transform="translate(-15 -4)" fill="white"/>
<g id="Group 5">
<path id="Vector" fill-rule="evenodd" clip-rule="evenodd" d="M13.629 6.89886H9.19701V0.810347C9.19701 0.606987 9.36406 0.439941 9.56742 0.439941H10.2311C10.2328 1.43775 10.6295 2.39421 11.3351 3.10094C12.0429 3.80712 13 4.20378 13.9989 4.20378V6.89942H13.6285L13.629 6.89886ZM13.9994 9.04811C13.9994 11.5873 13.4195 13.4796 12.2586 14.7126C11.0982 15.9456 9.30652 16.5607 6.89022 16.5607C4.63147 16.5607 2.91855 15.9456 1.75091 14.7126C0.583264 13.4796 0 11.6208 0 9.13414V0.793587C0 0.599166 0.157548 0.439941 0.353645 0.439941H4.44822C4.64264 0.441617 4.80243 0.599166 4.80243 0.793587V9.31683C4.80243 10.3314 4.9907 11.1136 5.37172 11.6633C5.96281 12.4454 7.01983 12.7069 7.90534 12.2901C8.19083 12.1555 8.44168 11.9577 8.63889 11.713C9.01265 11.1951 9.19757 10.4342 9.19757 9.42577V7.8313H14V9.04755L13.9994 9.04811Z" fill="#1F3E79"/>
<path id="Vector_2" fill-rule="evenodd" clip-rule="evenodd" d="M11.1766 0.440012H13.6292C13.8342 0.440012 13.9996 0.607058 13.9996 0.810418V3.26638C12.4414 3.26638 11.176 2.00264 11.176 0.442805V0.439453L11.1766 0.440012Z" fill="#F4821F"/>
</g>
</g>
</g>
</g>
</g>
</g>
</g>
</g>
</g>
</g>
</g>
</svg>
