<svg xmlns="http://www.w3.org/2000/svg" width="122" height="21" viewBox="0 0 122 21" fill="none">
<path d="M10.5376 0.00328734H10.5622H10.5705H10.5787H10.5869H10.5951H10.6033H10.6116H10.6198H10.628H10.6362H10.6444C10.7809 0.00328734 10.9156 0.00821837 11.0521 0.0147931H11.0997L11.1244 0.0180804H11.1326H11.1408H11.149H11.1573H11.1655H11.1737H11.1819H11.1901H11.1983H11.2066H11.2148H11.2312H11.2394H11.2477H11.2559H11.2641H11.2723H11.2805H11.2887H11.297H11.3052H11.3134H11.3298L11.3381 0.0197241H11.3463H11.3545H11.3627H11.3709H11.3792H11.3956L11.4038 0.0213678H11.412L11.4597 0.0246551H11.4679H11.4761H11.4926L11.5008 0.0262988H11.509H11.5172H11.5254H11.5337H11.5419H11.5501H11.5583H11.5665H11.5747H11.5912L11.5994 0.0279424H11.6076H11.6158H11.6241H11.6323H11.6405H11.6487C11.7819 0.0427355 11.9133 0.0591722 12.0448 0.0788963H12.0531H12.0613L12.0695 0.08054H12.0777L12.0859 0.0821837H12.0941L12.1024 0.0838273H12.1106L12.1188 0.085471H12.1352L12.1517 0.090402H12.1681L12.1763 0.0936894H12.1846H12.1928L12.201 0.0969767L12.2174 0.100264L12.2339 0.103551H12.2421L12.2503 0.106839H12.2585L12.2667 0.110126H12.275L12.2832 0.113413H12.2914L12.2996 0.116701H12.3078L12.316 0.119988H12.3243L12.3325 0.123275H12.3407L12.3489 0.126563H12.3571L12.3654 0.12985H12.3736H12.3818L12.413 0.134781L12.436 0.139712H12.4443H12.4525L12.4607 0.143L12.4771 0.146287H12.4853L12.4936 0.149574H12.5018L12.5412 0.157793H12.5494L12.5577 0.16108H12.5659H12.5741L12.5905 0.166011L12.607 0.169298H12.6152L12.6234 0.172586H12.6316L12.6398 0.175873L12.6563 0.17916L12.6727 0.182448H12.6809L12.6892 0.185735H12.6974L12.7056 0.189022H12.7138L12.722 0.19231H12.7303L12.7385 0.195597H12.7467L12.7549 0.198884L12.7631 0.200528H12.7713V0.202172H12.7796L12.7878 0.205459L12.796 0.207103H12.8042V0.208746H12.8124L12.8207 0.212034L12.8289 0.213678H12.8371V0.215321H12.8453L12.8535 0.218609L12.8617 0.220252H12.87V0.221896H12.8782L12.8864 0.225183L12.8946 0.226827H12.9028V0.228471L12.9176 0.231758L12.9324 0.235045L12.9406 0.236689H12.9489V0.238333H12.9571L12.9653 0.24162L12.9735 0.243264H12.9817V0.244907H12.99L12.9982 0.248195L13.013 0.251482L13.0278 0.254769L13.036 0.256413H13.0442V0.258057H13.0524L13.0606 0.261344L13.0688 0.262988H13.0771L13.0853 0.266275H13.0935V0.267919L13.1083 0.271206L13.1231 0.274493L13.1313 0.276137H13.1395L13.1477 0.279424L13.202 0.292574H13.2102L13.2184 0.295861L13.2266 0.297505H13.2349V0.299148H13.2431L13.2513 0.302436L13.2595 0.30408H13.2677V0.305723L13.2825 0.309011L13.2973 0.312298L13.3055 0.313942H13.3138V0.315585H13.322C13.3779 0.333666 13.4354 0.348459 13.4913 0.364895H13.4995V0.366539L13.5455 0.379689L13.5537 0.381332H13.5619V0.382976H13.5702L13.5784 0.387907L13.5866 0.389551H13.5948V0.391194H13.603L13.6113 0.396125L13.6261 0.401056L13.6408 0.405987H13.6491L13.6573 0.410918L13.6885 0.42078H13.6967L13.7049 0.425711H13.7132C13.8052 0.456941 13.8956 0.486527 13.986 0.517757L13.9942 0.521044L14.0025 0.524332L14.0107 0.527619L14.0189 0.530906L14.0337 0.535837L14.0419 0.539125L14.0501 0.542412L14.0583 0.5457L14.0731 0.550631L14.0879 0.555562L14.0961 0.558849L14.1044 0.562136L14.1126 0.565424L14.1208 0.568711L14.129 0.571998L14.1372 0.575286L14.1455 0.578573L14.1685 0.586791L14.1767 0.590079L14.1849 0.593366L14.1931 0.596653L14.2013 0.599941L14.2161 0.604872L14.2309 0.609803L14.2391 0.61309L14.2539 0.618021L14.2622 0.621309L14.2704 0.624596L14.2786 0.627883L14.2868 0.631171L14.295 0.634458L14.3032 0.637745L14.3115 0.641033L14.3197 0.64432L14.3279 0.647607L14.3361 0.650895L14.3443 0.654182L14.3526 0.657469L14.3608 0.660757L14.369 0.664044L14.3756 0.667331L14.3838 0.670619L14.392 0.673906L14.4002 0.677193L14.4084 0.680481L14.4167 0.683768L14.4249 0.687055L14.4331 0.690343L14.4413 0.69363L14.4495 0.696917L14.4561 0.700205L14.4643 0.703492L14.4709 0.706779L14.4791 0.710067L14.4857 0.713354L14.4939 0.716642L14.5005 0.719929L14.5087 0.723216L14.5153 0.726504L14.5235 0.729791L14.5301 0.733078L14.5383 0.736366L14.5449 0.739653L14.5514 0.74294L14.5597 0.746228L14.5679 0.749515L14.5745 0.752802L14.5892 0.759377L14.5958 0.762664L14.6024 0.765952L14.609 0.769239L14.6172 0.772526L14.6238 0.775814L14.6303 0.779101L14.6369 0.782388L14.6435 0.785676L14.6501 0.788963L14.6566 0.792251L14.6714 0.798825L14.6862 0.8054L14.6928 0.808687L14.6994 0.811975C14.77 0.841561 14.8407 0.87279 14.9114 0.905664L14.918 0.908951L14.9328 0.915526L14.9393 0.918813L14.9459 0.922101L14.9525 0.925388L14.9591 0.928675L14.9656 0.931963L14.9722 0.93525L14.9788 0.938537L14.9854 0.941825L14.9919 0.945112L14.9985 0.948399L15.0051 0.951687L15.0117 0.954974L15.0182 0.958261L15.0248 0.961549L15.0314 0.964836L15.038 0.968123L15.0445 0.971411L15.0511 0.974698L15.0577 0.977986L15.0643 0.981273L15.0708 0.98456L15.0774 0.987848L15.084 0.991135L15.0906 0.994422L15.0971 0.99771L15.1037 1.001L15.1103 1.00428L15.1169 1.00757L15.1234 1.01086L15.13 1.01415L15.1366 1.01743L15.1432 1.02072L15.1497 1.02401L15.1563 1.0273L15.1629 1.03058L15.1695 1.03387L15.176 1.03716L15.1826 1.04045L15.1892 1.04373L15.1958 1.04702L15.2023 1.05031L15.2089 1.05359L15.2155 1.05688L15.2221 1.06017L15.2286 1.06346L15.2352 1.06674L15.2418 1.07003L15.2484 1.07332L15.2549 1.07661L15.2615 1.07989L15.2681 1.08318L15.2747 1.08647L15.2812 1.08976L15.2878 1.09304L15.2944 1.09633L15.301 1.09962L15.3075 1.1029L15.3141 1.10619L15.3207 1.10948L15.3273 1.11277L15.3338 1.11605L15.3404 1.11934L15.347 1.12263L15.3536 1.12592L15.3601 1.1292L15.3667 1.13249L15.3733 1.13578L15.3799 1.13907L15.3864 1.14235L15.393 1.14564L15.3996 1.14893L15.4062 1.15221L15.4209 1.16043L15.4275 1.16372L15.4341 1.16701L15.4407 1.1703L15.4472 1.17358L15.462 1.1818L15.4768 1.19002L15.4916 1.19824L15.4982 1.20153L15.5048 1.20481L15.5113 1.2081L15.5179 1.21139L15.5245 1.21467L15.5311 1.21796L15.5376 1.22125L15.5442 1.22454L15.5508 1.22782L15.5574 1.23111L15.5639 1.2344L15.5705 1.23769L15.5771 1.24097L15.5837 1.24426L15.5902 1.24755L15.5968 1.25084L15.6034 1.25412L15.61 1.25741L15.6165 1.2607L15.6231 1.26398L15.6297 1.26727L15.6363 1.27056L15.6428 1.27385L15.6494 1.27713L15.656 1.28042L15.6626 1.28371L15.6691 1.287L15.6757 1.29028L15.6823 1.29357L15.6889 1.29686L15.6954 1.30015L15.702 1.30343L15.7086 1.30672L15.7152 1.31001L15.7217 1.31329L15.7283 1.31658L15.7349 1.31987L15.7415 1.32316L15.748 1.32644L15.7546 1.32973L15.7612 1.33302L15.7678 1.33631L15.7743 1.33959L15.7875 1.34781L15.7941 1.3511L15.8072 1.35932L15.8138 1.36261L15.8204 1.36589L15.8614 1.39055L15.9157 1.42342C15.988 1.4678 16.062 1.51218 16.1327 1.55656L16.1458 1.56478L16.1524 1.56971L16.1787 1.58614L16.1853 1.59108L16.1918 1.59601L16.1984 1.60094L16.205 1.60587L16.2181 1.61409L16.2247 1.61902L16.2313 1.62395L16.251 1.6371L16.2576 1.64203L16.2641 1.64696L16.2707 1.65189L16.2773 1.65682L16.2839 1.66175L16.2904 1.66668L16.297 1.67162L16.3036 1.67655L16.3102 1.68148L16.3167 1.68641L16.3233 1.69134L16.3299 1.69627L16.343 1.70449L16.3562 1.71271L16.3693 1.72093L16.3825 1.72914L16.3891 1.73408L16.3956 1.73901L16.4022 1.74394L16.4088 1.74887L16.4219 1.75709L16.4285 1.76202L16.4351 1.76695L16.4417 1.77188L16.4482 1.77681L16.4548 1.78174L16.4614 1.78667L16.468 1.7916L16.4745 1.79653L16.4811 1.80147L16.4877 1.8064L16.4943 1.81133L16.5008 1.81626L16.5074 1.82119L16.514 1.82612L16.5206 1.83105L16.5337 1.84091L16.5403 1.84584L16.5469 1.85078L16.5797 1.87379C16.6405 1.91652 16.6997 1.9609 16.7605 2.00528L16.8181 2.04802L16.8246 2.05295L16.8312 2.05788L16.8559 2.0776L16.8624 2.08253L16.869 2.08747L16.8756 2.0924L16.8822 2.09733L16.8953 2.10719L16.9019 2.11212L16.9085 2.11705L16.9282 2.13184L16.9348 2.13678L16.9528 2.15157L16.9594 2.1565L16.966 2.16143L16.9726 2.16636L16.9791 2.17129L16.9857 2.17622L16.9923 2.18115L16.9989 2.18609L17.012 2.19595L17.0186 2.20088L17.0252 2.20581L17.0317 2.21074L17.0383 2.21567L17.0449 2.2206L17.0515 2.22553L17.058 2.23046L17.0646 2.2354L17.0712 2.24033L17.0778 2.24526L17.0843 2.25019L17.0909 2.25512L17.0975 2.26005L17.1041 2.26498L17.1106 2.26991L17.1172 2.27484L17.1238 2.27977L17.1304 2.28471L17.1369 2.28964L17.1435 2.29457L17.1501 2.2995L17.1567 2.30443L17.1632 2.30936L17.1764 2.31922L17.1895 2.32908L17.201 2.33895L17.2076 2.34388L17.2142 2.34881L17.2208 2.35374L17.2273 2.35867L17.2388 2.36853L17.2504 2.3784L17.2569 2.38333L17.2635 2.38826L17.2882 2.40962L17.2947 2.41456L17.3013 2.41949L17.3079 2.42442L17.3325 2.44579L17.3391 2.45072L17.3506 2.46058L17.3572 2.46551L17.3638 2.47044L17.3703 2.47537L17.3769 2.4803L17.3884 2.49016L17.3999 2.50003L17.4065 2.50496L17.4131 2.50989L17.4197 2.51482L17.4262 2.51975L17.4328 2.52468L17.4394 2.52961L17.4459 2.53454L17.4525 2.53948L17.4591 2.54441L17.4657 2.54934L17.4722 2.55427L17.4788 2.5592L17.4854 2.56413L17.492 2.56906L17.4985 2.57399L17.5051 2.57892L17.5166 2.58879L17.5281 2.59865L17.5396 2.60851L17.5511 2.62002L17.5692 2.63645L17.5758 2.64138L17.5988 2.66275L17.6054 2.66768L17.612 2.67261L17.6185 2.67754L17.63 2.68905L17.6366 2.69398L17.6432 2.69891L17.6547 2.71042L17.6613 2.71535L17.6678 2.72028L17.6744 2.72521L17.681 2.73014L17.6876 2.73507L17.6941 2.74L17.7007 2.74493L17.7073 2.74987L17.7122 2.7548L17.7188 2.75973L17.7254 2.76466L17.7319 2.76959L17.7385 2.77452L17.7451 2.77945L17.75 2.78438L17.7566 2.78931L17.7615 2.79424L17.7681 2.79918L17.773 2.80411L17.7796 2.80904L17.7845 2.81397L17.7895 2.8189L17.7944 2.82383L17.801 2.82876L17.8059 2.83369L17.8108 2.83862L17.8158 2.84355L17.8223 2.84849L17.8273 2.85342L17.8322 2.85835L17.8371 2.86328L17.8421 2.86821L17.847 2.87314L17.8519 2.87807L17.8569 2.883L17.8618 2.88793L17.8667 2.89286L17.8717 2.8978L17.8766 2.90273L17.8881 2.91423L17.893 2.91916L17.898 2.92409L17.9095 2.9356L17.9144 2.94053L17.9193 2.94546L17.9243 2.95039L17.9292 2.95532L17.9407 2.96683L17.9456 2.97176L17.9506 2.97669L17.9555 2.98162L17.9604 2.98655L17.9653 2.99149L17.9703 2.99642L17.9752 3.00135L17.9801 3.00628L17.9916 3.01778L17.9966 3.02272L18.0015 3.02765L18.013 3.03915L18.0179 3.04408L18.0229 3.04901L18.0344 3.06052L18.0459 3.07203L18.0508 3.07696L18.0558 3.08189L18.0607 3.08682L18.0656 3.09175L18.0705 3.09668L18.0755 3.10326L18.0804 3.10819L18.0853 3.11312L18.0903 3.11969L18.0952 3.12627L18.1001 3.13284L18.1051 3.13777L18.11 3.14435L18.1149 3.15092L18.1199 3.1575L18.1248 3.16407L18.1297 3.17065L18.1346 3.17722L18.1396 3.18379L18.1445 3.19037L18.1494 3.19694L18.1544 3.20352L18.1593 3.21009L18.1642 3.21667L18.1692 3.22324L18.1741 3.22982L18.179 3.23639L18.184 3.24297L18.1889 3.24954L18.1938 3.25612L18.1988 3.26269L18.2037 3.26927L18.2086 3.27584L18.2135 3.28242L18.2185 3.28899L18.2234 3.29556L18.2283 3.30214L18.2333 3.30871L18.2448 3.32022L18.2563 3.33173L18.2678 3.34323L18.2793 3.35474L18.2892 3.36624L18.2941 3.37282L18.299 3.37939L18.3039 3.38597L18.3089 3.39254L18.3138 3.39912L18.3187 3.40569L18.3237 3.41227L18.3286 3.41884L18.3335 3.42542L18.3385 3.43199L18.3434 3.43856L18.3483 3.44514L18.3533 3.45171L18.3582 3.45829L18.368 3.46979L18.373 3.47637L18.3779 3.48294L18.4354 3.54869L18.4404 3.55527L18.4453 3.56184L18.4502 3.56841L18.4552 3.57499L18.4864 3.61115L18.4913 3.61772L18.4963 3.6243L18.5226 3.65553L18.5324 3.66704L18.5423 3.67854L18.5521 3.69005L18.562 3.70155L18.5669 3.70813L18.5719 3.7147L18.5817 3.72785L18.5916 3.741L18.6015 3.75251L18.6113 3.76566L18.6162 3.77223L18.6212 3.7788L18.6261 3.78538L18.631 3.79195L18.636 3.79853L18.6409 3.8051L18.6458 3.81168L18.6508 3.81825L18.6557 3.82483L18.6606 3.8314L18.6656 3.83798L18.6705 3.84455L18.6754 3.85113L18.6803 3.8577L18.6853 3.86428L18.6902 3.87085L18.6951 3.87742L18.7001 3.884L18.705 3.89057L18.7099 3.89715L18.7149 3.90372L18.7198 3.9103L18.7247 3.91687L18.7297 3.92345L18.7346 3.93002L18.7395 3.9366L18.7445 3.94317L18.7494 3.94975L18.7543 3.95632L18.7592 3.9629L18.7642 3.96947L18.7691 3.97605L18.774 3.98262L18.779 3.98919L18.7839 3.99577L18.7888 4.00234L18.7938 4.00892L18.7987 4.01549L18.8036 4.02207L18.8086 4.02864L18.8135 4.03522L18.8184 4.04179L18.8233 4.04837L18.8283 4.05494L18.8332 4.06152L18.8381 4.06809L18.8431 4.07467L18.848 4.08124L18.8529 4.08782L18.8579 4.09439L18.8628 4.10096L18.8677 4.10754L18.8727 4.11411L18.8776 4.12069L18.8825 4.12726L18.8875 4.13384L18.8924 4.14041L18.8973 4.14699L18.9022 4.15356L18.9072 4.16014L18.9121 4.16671L18.922 4.17986L18.9269 4.18644L18.9368 4.19958L18.9417 4.20616L18.9466 4.21273L18.9516 4.21931L18.9565 4.22588L18.9614 4.23246L18.9663 4.23903L18.9713 4.24561L18.9762 4.25218L18.9811 4.25876L18.9861 4.26533L18.991 4.27191L18.9959 4.27848L19.0009 4.28506L19.0058 4.29163L19.0107 4.29821L19.0157 4.30478L19.0206 4.31135L19.0255 4.31793L19.0305 4.3245L19.0354 4.33108L19.0403 4.33765L19.0452 4.34423L19.0502 4.3508L19.0551 4.35738L19.06 4.36395L19.065 4.37053L19.0699 4.3771L19.0748 4.38368L19.0798 4.39025L19.0847 4.39683L19.0896 4.4034L19.0946 4.40998L19.0995 4.41655L19.1044 4.42312L19.1093 4.4297L19.1143 4.43627L19.1192 4.44285L19.1241 4.44942L19.1291 4.456L19.134 4.46257L19.1389 4.46915L19.1439 4.47572L19.1488 4.4823L19.1537 4.48887L19.1619 4.50202L19.1669 4.5086L19.1718 4.51517L19.1767 4.52174L19.1817 4.52832L19.1866 4.53489L19.1915 4.54147L19.1965 4.54804L19.2014 4.55462L19.2096 4.56777L19.2178 4.58092L19.226 4.59407L19.2343 4.60722L19.2392 4.61379L19.2441 4.62037L19.2491 4.62694L19.254 4.63351L19.2721 4.65981L19.277 4.66639L19.2819 4.67296L19.2869 4.67954C19.3082 4.71241 19.3296 4.74693 19.351 4.7798L19.3592 4.79295L19.4019 4.86034L19.4069 4.86692L19.4118 4.87349L19.4167 4.88007L19.4216 4.88664L19.4463 4.92773L19.4512 4.93431L19.4562 4.94088C19.4792 4.98033 19.5022 5.01813 19.5268 5.05758L19.5301 5.06416L19.5334 5.07073L19.5367 5.07731L19.54 5.08388L19.5482 5.09703L19.5515 5.10361L19.5548 5.11018L19.5581 5.11676L19.5663 5.1299L19.5696 5.13648L19.5811 5.15785L19.5844 5.16442L19.5877 5.171L19.5909 5.17757L19.5942 5.18415L19.5975 5.19072L19.6008 5.19729L19.6041 5.20387L19.6074 5.21044L19.6107 5.21702L19.614 5.22359L19.6172 5.23017L19.6205 5.23674L19.6238 5.24332L19.6271 5.24989L19.6304 5.25647L19.6337 5.26304L19.637 5.26962L19.6403 5.27619L19.6435 5.28277L19.6468 5.28934L19.6501 5.29592L19.6534 5.30249L19.6567 5.30906L19.66 5.31564L19.6633 5.32221L19.6666 5.32879L19.6698 5.33536L19.6731 5.34194L19.6764 5.34851L19.6797 5.35509L19.683 5.36166L19.6863 5.36824L19.6896 5.37481L19.6929 5.38139L19.6961 5.38796L19.6994 5.39454L19.7027 5.40111L19.706 5.40768L19.7093 5.41426L19.7126 5.42083L19.7159 5.42741L19.7191 5.43398L19.7274 5.44878L19.7356 5.46357L19.7438 5.47836L19.7471 5.48494L19.7504 5.49151L19.7537 5.49809L19.757 5.50466L19.7602 5.51124L19.7635 5.51781L19.7668 5.52439L19.7701 5.53096L19.7734 5.53753L19.7767 5.54411L19.78 5.55068L19.7833 5.55726L19.7865 5.56383L19.7898 5.57041L19.7931 5.57698L19.7964 5.58356L19.7997 5.59013L19.803 5.59671L19.8063 5.60328L19.8096 5.60986L19.8128 5.61643L19.8161 5.62301L19.8194 5.62958L19.8227 5.63616L19.826 5.64273L19.8293 5.6493L19.8326 5.65588L19.8358 5.66245L19.8391 5.66903L19.8424 5.6756L19.8457 5.68218L19.849 5.68875L19.8523 5.69533L19.8556 5.7019L19.8589 5.70848L19.8621 5.71505L19.8654 5.72163L19.8687 5.7282L19.872 5.73478L19.8753 5.74135L19.8786 5.74793L19.8819 5.7545L19.8852 5.76107L19.8884 5.76765L19.8917 5.77422L19.895 5.7808L19.8983 5.78737L19.9016 5.79395L19.9049 5.80052L19.9082 5.8071L19.9115 5.81367L19.9147 5.82025L19.918 5.82682L19.9213 5.8334L19.9246 5.83997L19.9279 5.84655L19.9312 5.85312L19.9345 5.85969L19.9378 5.86627L19.941 5.87284L19.9443 5.87942L19.9476 5.88599L19.9509 5.89257L19.9542 5.89914L19.9575 5.90572L19.9608 5.91229L19.9673 5.92709L19.9706 5.93366L19.9739 5.94023L19.9772 5.94681L19.9805 5.95338L19.9838 5.95996L19.9871 5.96653L19.9904 5.97311L19.9936 5.97968L19.9969 5.98626L20.0002 5.99283L20.0035 5.99941L20.0068 6.00598L20.0101 6.01256L20.0134 6.01913L20.0167 6.02571L20.0199 6.03228L20.0232 6.03886L20.0331 6.06022L20.0364 6.0668L20.066 6.13254L20.0857 6.17692L20.089 6.1835L20.1054 6.21966L20.1087 6.22623L20.112 6.23281L20.1153 6.23938L20.1186 6.24596L20.1218 6.25253L20.1251 6.25911L20.1284 6.26568L20.1317 6.27226L20.135 6.27883L20.1383 6.28541L20.1416 6.29198L20.1449 6.29856L20.1481 6.30513L20.1514 6.31171L20.1547 6.31992L20.158 6.3265L20.1646 6.34129L20.1679 6.34787L20.1712 6.35608L20.1744 6.3643L20.1777 6.37088L20.181 6.3791L20.1843 6.38731L20.1876 6.39553L20.1909 6.40211L20.1942 6.41033L20.1975 6.41854L20.2007 6.42676L20.204 6.43498L20.2073 6.4432L20.2106 6.45142L20.2139 6.45799L20.2172 6.46621L20.2205 6.47278L20.2238 6.481L20.227 6.48922L20.2303 6.4958L20.2336 6.50401L20.2369 6.51223L20.2402 6.52045L20.2435 6.52867L20.2468 6.53689L20.2501 6.54511L20.2533 6.55332L20.2566 6.56154L20.2599 6.56976L20.2632 6.57798L20.2665 6.5862L20.2698 6.59442L20.2731 6.60264L20.2764 6.61085L20.2796 6.61907L20.2829 6.62729L20.2862 6.63551L20.2895 6.64373L20.2928 6.65195L20.2961 6.66016L20.301 6.67496L20.3059 6.68975L20.3109 6.70454L20.3158 6.71934L20.3207 6.73413L20.324 6.74235L20.3273 6.75057L20.3306 6.75878L20.3339 6.767L20.3372 6.77522L20.3405 6.78344L20.3437 6.79166L20.347 6.79988L20.3503 6.80809L20.3536 6.81631L20.3569 6.82453L20.3602 6.83275L20.3635 6.84097L20.3668 6.84919L20.37 6.8574L20.3733 6.86562L20.3766 6.87384L20.3799 6.88206L20.3832 6.89028L20.3865 6.8985L20.3898 6.90671L20.3931 6.91493L20.3963 6.92315L20.3996 6.93137L20.4046 6.94616L20.4078 6.95438L20.4111 6.9626L20.4161 6.97739L20.4194 6.98561L20.4226 6.99383L20.4276 7.00862L20.4309 7.01684L20.4391 7.03985L20.444 7.05465L20.4588 7.10067L20.4637 7.11546L20.4654 7.12368V7.1319H20.467V7.14012L20.472 7.14833L20.4736 7.15655L20.4785 7.17135V7.17956H20.4802V7.18778L20.4851 7.196L20.4867 7.20422L20.4917 7.21901V7.22723H20.4933V7.23545L20.4983 7.24367V7.25189L20.5032 7.2601L20.5048 7.26832V7.27654L20.5114 7.29133L20.5163 7.30613L20.5213 7.32092V7.32914L20.5262 7.33736L20.5278 7.34558V7.35379H20.5295V7.36201L20.5344 7.37023L20.5361 7.37845V7.38667H20.5377V7.39489L20.5426 7.4031V7.41132L20.5476 7.41954V7.42776L20.5525 7.43598V7.4442L20.5574 7.45241L20.5591 7.46063V7.46885H20.5607V7.47707L20.5656 7.48529L20.5673 7.49351V7.50172H20.5689V7.50994L20.5739 7.51816L20.5755 7.52638V7.5346H20.5771L20.5821 7.54939L20.5837 7.55761V7.56583H20.5854V7.57405L20.5903 7.58226L20.5919 7.59048V7.5987H20.5936V7.60692L20.5985 7.61514L20.6067 7.64637L20.6084 7.65459V7.6628H20.61L20.6215 7.70883L20.6232 7.71705L20.6265 7.73184V7.74006H20.6281V7.74828L20.6314 7.75649L20.633 7.76471V7.77293H20.6347L20.638 7.78772L20.6462 7.81895V7.82717L20.6495 7.83539L20.6528 7.85018V7.8584L20.6577 7.87319V7.88141H20.6593L20.6643 7.90442V7.91264H20.6659V7.92086L20.6692 7.92908L20.6708 7.9373V7.94552H20.6725V7.95373L20.6758 7.96195L20.6774 7.97017V7.97839H20.6791V7.98661L20.6823 7.99483L20.684 8.00304V8.01126H20.6856V8.01948L20.6889 8.0277L20.6906 8.03592V8.04414H20.6922V8.05235L20.6955 8.06057L20.6971 8.06879V8.07701H20.6988V8.08523L20.7021 8.09345L20.7037 8.10167V8.10988H20.7054V8.1181L20.7086 8.12632L20.7103 8.13454V8.14276H20.7119V8.15098L20.7152 8.15919L20.7169 8.16741V8.17563H20.7185V8.18385L20.7218 8.19207L20.7234 8.20028V8.2085V8.21672L20.7267 8.22494V8.23316V8.24138H20.7284V8.2496L20.7317 8.25781V8.26603V8.27425V8.28247L20.7349 8.29069V8.29891V8.30712V8.31534L20.7382 8.32356V8.33178V8.34L20.7432 8.35643L20.7464 8.37287V8.38109L20.7497 8.38931V8.39753L20.753 8.40574V8.41396L20.7563 8.42218L20.7629 8.45341L20.7662 8.46985L20.7727 8.5093V8.51751V8.52573L20.7777 8.54874L20.7843 8.58819V8.59641L20.7875 8.61942V8.62764V8.63586L20.7908 8.64408L20.799 8.69174V8.69996L20.8023 8.70818V8.7164V8.72462V8.73284L20.8056 8.74105V8.74927V8.75749V8.76571L20.8073 8.77393V8.78215L20.8089 8.79036V8.79858V8.8068V8.81502L20.8105 8.82324V8.83967L20.8155 8.85611V8.86433L20.8171 8.87255V8.88077L20.8221 8.90378L20.827 8.93501C20.8418 9.04513 20.8566 9.1569 20.8681 9.26703V9.27525L20.8697 9.28347V9.29168V9.2999V9.30812L20.8714 9.31634V9.33278L20.8747 9.34921V9.36565L20.8763 9.37387V9.39688L20.8796 9.4051V9.41332V9.42153V9.42975V9.43797V9.44619V9.45441V9.46263V9.47084V9.47906V9.48728V9.4955V9.50372V9.51194V9.52015V9.52837V9.53659V9.54481V9.55303V9.56125V9.56947V9.57768V9.5859V9.59412V9.60234V9.61056V9.61878V9.62699V9.63521V9.64343V9.65165V9.65987V9.66809V9.6763V9.68452V9.69274V9.70096V9.70918V9.73219L20.8812 9.74041V9.74863C20.8845 9.793 20.8862 9.83903 20.8894 9.88341C20.8927 9.96066 20.896 10.0379 20.8977 10.1152V10.1234V10.1316V10.1398V10.148V10.1563V10.1645V10.1727V10.1809V10.1973V10.2056V10.2138V10.222V10.2302V10.2384V10.2467V10.2549V10.2631V10.2713V10.2795V10.2878V10.296V10.3042V10.3124V10.3206V10.3288V10.3371V10.3535V10.3699V10.3864V10.4028V10.4275V10.4357V10.4439V10.4686V10.4768V10.485V10.4932V10.5014V10.5096V10.5179V10.5261V10.5343V10.5425V10.5507V10.559V10.5672V10.5754V10.5836V10.5918V10.6V10.6083V10.6247V10.6329V10.6411V10.6494V10.6576V10.6658V10.674V10.6822V10.6904C20.896 10.7677 20.8927 10.845 20.8894 10.9222C20.8878 10.9666 20.8845 11.0126 20.8812 11.057V11.0652V11.0734L20.8796 11.0964V11.1047V11.1129V11.1211V11.1293V11.1375V11.1457V11.154V11.1622V11.1704V11.1786V11.1868V11.1951V11.2033V11.2115V11.2197V11.2279V11.2361V11.2444V11.2526V11.2608V11.269V11.2772V11.2855V11.2937V11.3019V11.3101V11.3183V11.3266V11.3348V11.343V11.3512V11.3594V11.3676V11.3759V11.3841V11.3923V11.4005V11.4087L20.8763 11.4317V11.44L20.8747 11.4564V11.4728L20.8714 11.4893V11.4975L20.8697 11.5057V11.5139V11.5221V11.5304L20.8681 11.5386C20.8566 11.6504 20.8418 11.7605 20.827 11.8706L20.8221 11.9018L20.8188 11.9248V11.9331V11.9413L20.8171 11.9495V11.9659L20.8122 11.9824V11.9906L20.8105 11.9988V12.007V12.0153V12.0235L20.8089 12.0317V12.0399L20.8073 12.0481V12.0563L20.804 12.0646V12.0728V12.081V12.0892L20.8007 12.0974V12.1057V12.1139L20.7908 12.1615V12.1698V12.178V12.1862L20.7859 12.2092V12.2174L20.7793 12.2569L20.7744 12.2799V12.2881V12.2963L20.7662 12.3358L20.7629 12.3522L20.7563 12.3834V12.3917L20.753 12.3999V12.4081L20.7497 12.4163V12.4245L20.7464 12.4327L20.7432 12.4492L20.7399 12.4656V12.4738L20.7366 12.4821V12.4903V12.4985V12.5067L20.7333 12.5149V12.5231V12.5314V12.5396L20.73 12.5478V12.556V12.5642V12.5725L20.7267 12.5807V12.5889V12.5971H20.7251V12.6053L20.7218 12.6135V12.6218V12.63H20.7201V12.6382L20.7169 12.6464L20.7152 12.6546V12.6629H20.7136V12.6711L20.7103 12.6793L20.7086 12.6875V12.6957H20.707V12.7039L20.7037 12.7122L20.7021 12.7204V12.7286H20.7004V12.7368L20.6971 12.745L20.6955 12.7533V12.7615H20.6938V12.7697L20.6906 12.7779L20.6889 12.7861V12.7944H20.6873V12.8026L20.684 12.8108L20.6823 12.819V12.8272H20.6807V12.8354L20.6774 12.8437L20.6758 12.8519V12.8601H20.6741V12.8683L20.6708 12.8765L20.6692 12.8848V12.893H20.6675V12.9012L20.6593 12.9242L20.6577 12.9324L20.6544 12.9472V12.9554H20.6528L20.6495 12.9702V12.9784L20.6462 12.9867L20.638 13.0179L20.6347 13.0327L20.633 13.0409V13.0491H20.6314V13.0573L20.6281 13.0656L20.6265 13.0738L20.6232 13.0886V13.0968H20.6215L20.61 13.1428V13.151L20.6051 13.1592L20.5969 13.1905L20.5952 13.1987V13.2069H20.5936V13.2151L20.5887 13.2234L20.587 13.2316V13.2398H20.5854V13.248L20.5804 13.2562L20.5755 13.271V13.2792L20.5706 13.2875V13.2957L20.5656 13.3039V13.3121L20.5607 13.3203L20.5591 13.3285V13.3368H20.5574V13.345L20.5525 13.3532L20.5508 13.3614V13.3696H20.5492V13.3779L20.5443 13.3861V13.3943L20.5393 13.4025L20.5344 13.4173V13.4255L20.5295 13.4337V13.442L20.5245 13.4502V13.4584L20.5196 13.4666L20.5147 13.4814L20.5098 13.4962L20.5048 13.511L20.4999 13.5258V13.534L20.495 13.5422L20.4933 13.5504V13.5587L20.4884 13.5669V13.5751H20.4867V13.5833L20.4802 13.5981V13.6063H20.4785V13.6145L20.4736 13.6228L20.472 13.631L20.467 13.6458V13.654H20.4654V13.6622L20.4604 13.6704L20.4588 13.6786V13.6869H20.4572L20.4522 13.7017L20.4489 13.7099L20.4391 13.7395L20.4358 13.7477L20.4325 13.7559L20.4292 13.7641L20.4259 13.7723L20.421 13.7871L20.4177 13.7953L20.4144 13.8036L20.4111 13.8118L20.4078 13.82L20.4046 13.8282L20.4013 13.8364L20.398 13.8447L20.3947 13.8529L20.3914 13.8611L20.3881 13.8693L20.3848 13.8775L20.3815 13.8858L20.3783 13.894L20.375 13.9022L20.3717 13.9104L20.3684 13.9186L20.3651 13.9268L20.3618 13.9351L20.3585 13.9433L20.3536 13.9581L20.3503 13.9663L20.347 13.9745L20.3437 13.9827L20.3405 13.9909L20.3372 13.9992L20.3339 14.0074L20.3306 14.0156L20.3273 14.0238L20.324 14.032L20.3207 14.0403L20.3174 14.0485L20.3142 14.0567L20.3109 14.0649L20.3076 14.0731L20.3027 14.0879L20.2977 14.1027L20.2928 14.1175L20.2879 14.1323L20.2829 14.1471L20.2796 14.1553L20.2764 14.1635L20.2731 14.1717L20.2698 14.18L20.2665 14.1882L20.2632 14.1964L20.2599 14.2046L20.2566 14.2128L20.2533 14.2211L20.2501 14.2293L20.2468 14.2375L20.2435 14.2457L20.2386 14.2605L20.2336 14.2753L20.227 14.2901L20.2238 14.2983L20.2205 14.3065L20.2172 14.3147L20.2139 14.323L20.2106 14.3312L20.2073 14.3394L20.2007 14.3542L20.1975 14.3624L20.1942 14.3706L20.1909 14.3789L20.1876 14.3871L20.1843 14.3936L20.181 14.4019L20.1744 14.4167L20.1679 14.4314L20.1613 14.4462L20.1547 14.461L20.1481 14.4758L20.1416 14.4906L20.135 14.5054L20.1317 14.512L20.1284 14.5186L20.1251 14.5251L20.1218 14.5317L20.1186 14.5383L20.1153 14.5449L20.112 14.5514L20.1087 14.558L20.1054 14.5646L20.1021 14.5712L20.0988 14.5777L20.0956 14.5843L20.0791 14.6205L20.0758 14.627L20.0561 14.6714L20.0265 14.7372L20.0232 14.7437L20.0134 14.7651L20.0101 14.7717L20.0068 14.7783L20.0035 14.7848L20.0002 14.7914L19.9969 14.798L19.9936 14.8046L19.9904 14.8111L19.9871 14.8177L19.9838 14.8243L19.9805 14.8309L19.9772 14.8374L19.9739 14.844L19.9706 14.8506L19.9673 14.8572L19.9641 14.8637L19.9608 14.8703L19.9575 14.8769L19.9509 14.8917L19.9476 14.8983L19.9443 14.9048L19.941 14.9114L19.9378 14.918L19.9345 14.9246L19.9312 14.9311L19.9279 14.9377L19.9246 14.9443L19.9213 14.9509L19.918 14.9574L19.9147 14.964L19.9115 14.9706L19.9082 14.9771L19.9049 14.9837L19.9016 14.9903L19.8983 14.9969L19.895 15.0034L19.8917 15.01L19.8884 15.0166L19.8852 15.0232L19.8819 15.0297L19.8786 15.0363L19.8753 15.0429L19.872 15.0495L19.8687 15.056L19.8654 15.0626L19.8621 15.0692L19.8589 15.0758L19.8556 15.0823L19.8523 15.0889L19.849 15.0955L19.8457 15.1021L19.8424 15.1086L19.8391 15.1152L19.8358 15.1218L19.8326 15.1284L19.8293 15.1349L19.826 15.1415L19.8227 15.1481L19.8194 15.1547L19.8161 15.1612L19.8128 15.1678L19.8096 15.1744L19.8063 15.181L19.803 15.1875L19.7997 15.1941L19.7964 15.2007L19.7931 15.2073L19.7898 15.2138L19.7865 15.2204L19.7833 15.227L19.78 15.2336L19.7767 15.2401L19.7734 15.2467L19.7701 15.2533L19.7668 15.2599L19.7635 15.2664L19.7602 15.273L19.757 15.2796L19.7537 15.2862L19.7504 15.2927L19.7471 15.2993L19.7438 15.3059L19.7405 15.3125L19.7372 15.319L19.7339 15.3256L19.7257 15.3404L19.7175 15.3552L19.7093 15.37L19.706 15.3766L19.7027 15.3831L19.6994 15.3897L19.6961 15.3963L19.6929 15.4029L19.6896 15.4094L19.6863 15.416L19.683 15.4226L19.6797 15.4292L19.6764 15.4357L19.6731 15.4423L19.6698 15.4489L19.6666 15.4555L19.6633 15.462L19.66 15.4686L19.6567 15.4752L19.6534 15.4818L19.6501 15.4883L19.6468 15.4949L19.6435 15.5015L19.6403 15.5081L19.637 15.5146L19.6337 15.5212L19.6304 15.5278L19.6271 15.5344L19.6238 15.5409L19.6205 15.5475L19.6172 15.5541L19.614 15.5607L19.6107 15.5672L19.6074 15.5738L19.6041 15.5804L19.6008 15.587L19.5975 15.5935L19.5942 15.6001L19.5909 15.6067L19.5877 15.6133L19.5844 15.6198L19.5811 15.6264L19.5778 15.633L19.5745 15.6395L19.5712 15.6461L19.5679 15.6527L19.5597 15.6658L19.5564 15.6724L19.5531 15.679L19.5499 15.6856L19.5466 15.6921L19.5433 15.6987L19.54 15.7053L19.5318 15.7184L19.5285 15.725L19.5252 15.7316L19.5219 15.7382L19.5186 15.7447L19.5153 15.7513L19.512 15.7579L19.5088 15.7645L19.5055 15.771L19.5005 15.7776L19.4923 15.7908L19.489 15.7973L19.4841 15.8039L19.4808 15.8105L19.4775 15.8171L19.4693 15.8302L19.4611 15.8434L19.4578 15.8499L19.4529 15.8565L19.4479 15.8631L19.443 15.8697L19.4216 15.9042L19.4167 15.9108L19.4118 15.9173L19.4069 15.9239L19.4019 15.9305L19.397 15.9371L19.3921 15.9436L19.3871 15.9502L19.3707 15.9765L19.3658 15.9831L19.3608 15.9897L19.3526 16.0028L19.3444 16.016L19.3395 16.0225L19.3345 16.0291L19.3296 16.0357L19.3247 16.0422L19.3197 16.0488L19.3017 16.0751L19.2967 16.0817L19.2918 16.0883L19.2869 16.0948L19.2819 16.1014L19.277 16.108L19.2721 16.1146L19.2671 16.1211L19.2622 16.1277L19.2573 16.1343L19.2491 16.1474L19.2441 16.154L19.2392 16.1606L19.231 16.1737L19.2228 16.1869L19.2145 16.2L19.2063 16.2132L19.2014 16.2198L19.1965 16.2263L19.1915 16.2329L19.1866 16.2395L19.1817 16.2461L19.1767 16.2526L19.1718 16.2592L19.1669 16.2658L19.1619 16.2724L19.157 16.2789L19.1521 16.2855L19.1472 16.2921L19.1422 16.2987L19.1373 16.3052L19.1324 16.3118L19.1274 16.3184L19.1225 16.325L19.1176 16.3315L19.1126 16.3381L19.1077 16.3447L19.1028 16.3513L19.0978 16.3578L19.0929 16.3644L19.088 16.371L19.083 16.3776L19.0781 16.3841L19.0732 16.3907L19.0683 16.3973L19.0633 16.4039L19.0584 16.4104L19.0535 16.417L19.0485 16.4236L19.0436 16.4302L19.0387 16.4367L19.0337 16.4433L19.0288 16.4499L19.0239 16.4565L19.0189 16.463L19.014 16.4696L19.0091 16.4762L19.0042 16.4828L18.9992 16.4893L18.9943 16.4959L18.9894 16.5025L18.9844 16.5091L18.9795 16.5156L18.9746 16.5222L18.9696 16.5288L18.9647 16.5354L18.9598 16.5419L18.9548 16.5485L18.9499 16.5551L18.945 16.5616L18.94 16.5682L18.9351 16.5748L18.9302 16.5814L18.9253 16.5879L18.9203 16.5945L18.9154 16.6011L18.9105 16.6077L18.9055 16.6142L18.9006 16.6208L18.8957 16.6274L18.8907 16.634L18.8858 16.6405L18.8809 16.6471L18.871 16.6603L18.8661 16.6668L18.8612 16.6734L18.8562 16.68L18.8513 16.6866L18.8414 16.6997L18.8365 16.7063L18.8316 16.7129L18.8266 16.7194L18.8217 16.726L18.8168 16.7326L18.8118 16.7392L18.8069 16.7457L18.802 16.7523L18.797 16.7589L18.7872 16.772L18.7823 16.7786L18.7773 16.7852L18.7724 16.7918L18.7625 16.8049L18.7576 16.8115L18.7477 16.8246L18.7428 16.8312L18.7329 16.8444L18.728 16.8509L18.7231 16.8575L18.7182 16.8641L18.7132 16.8707L18.7083 16.8772L18.7034 16.8838L18.6984 16.8904L18.6787 16.915L18.6738 16.9216L18.6688 16.9282L18.6639 16.9348L18.659 16.9413L18.654 16.9479L18.6491 16.9545L18.6442 16.9611L18.6393 16.9676L18.6343 16.9742L18.6294 16.9808L18.6245 16.9874L18.6195 16.9939L18.6146 17.0005L18.6097 17.0071L18.6047 17.0137L18.5998 17.0202L18.5949 17.0268L18.5899 17.0334L18.585 17.04L18.5752 17.0515L18.5653 17.0646L18.5604 17.0712L18.5554 17.0778L18.5505 17.0843L18.5456 17.0909L18.5357 17.1024L18.5308 17.109L18.5258 17.1156L18.516 17.1271L18.5061 17.1386L18.4963 17.1501L18.4913 17.1567L18.4864 17.1632L18.4815 17.1698L18.4765 17.1764L18.4716 17.183L18.4667 17.1895L18.4568 17.201L18.442 17.2191L18.4371 17.2257L18.4322 17.2323L18.4272 17.2388L18.4223 17.2454L18.3648 17.3112L18.3549 17.3227L18.345 17.3342L18.3352 17.3457L18.3302 17.3523L18.3253 17.3588L18.3204 17.3654L18.3155 17.372L18.3105 17.3786L18.3056 17.3851L18.3007 17.3917L18.2957 17.3983L18.2908 17.4049L18.2859 17.4114L18.2809 17.418L18.276 17.4246L18.2661 17.4361L18.2546 17.4476L18.2431 17.4591L18.2382 17.4657L18.2333 17.4722L18.2283 17.4788L18.2234 17.4854L18.2185 17.492L18.2135 17.4985L18.2086 17.5051L18.2037 17.5117L18.1988 17.5183L18.1938 17.5248L18.1889 17.5314L18.184 17.538L18.179 17.5446L18.1675 17.5561L18.1626 17.5626L18.1577 17.5692L18.1527 17.5758L18.1478 17.5824L18.1429 17.5889L18.1379 17.5955L18.133 17.6005L18.1281 17.607L18.1231 17.612L18.1182 17.6185L18.1133 17.6235L18.1084 17.63L18.1034 17.635L18.0985 17.6415L18.0936 17.6465L18.0771 17.6646L18.0722 17.6695L18.0673 17.6761L18.0558 17.6876L18.0508 17.6925L18.0459 17.6991L18.041 17.704L18.036 17.7106L18.0311 17.7155L18.0196 17.727L18.0081 17.7385L17.9966 17.75L17.9851 17.7615L17.9801 17.7681L17.9752 17.773L17.9637 17.7845L17.9588 17.7895L17.9538 17.7944L17.9489 17.7993L17.944 17.8043L17.9391 17.8092L17.9341 17.8141L17.9292 17.8191L17.9243 17.824L17.9128 17.8355L17.9078 17.8404L17.9029 17.8454L17.898 17.8503L17.893 17.8552L17.8815 17.8667L17.8766 17.8717L17.8717 17.8766L17.8602 17.8881L17.8552 17.893L17.8503 17.898L17.8454 17.9029L17.8404 17.9078L17.8355 17.9128L17.8306 17.9177L17.8256 17.9226L17.8207 17.9275L17.8158 17.9325L17.8108 17.9374L17.8059 17.9423L17.7993 17.9473L17.7944 17.9522L17.7895 17.9571L17.7845 17.9621L17.778 17.967L17.773 17.9719L17.7681 17.9769L17.7632 17.9818L17.7566 17.9867L17.7517 17.9916L17.7451 17.9966L17.7402 18.0015L17.7336 18.0064L17.7287 18.0114L17.7221 18.0163L17.7155 18.0212L17.7089 18.0262L17.7024 18.0311L17.6958 18.036L17.6909 18.041L17.6843 18.0459L17.6777 18.0508L17.6711 18.0557L17.6646 18.0607L17.658 18.0656L17.6514 18.0705L17.6448 18.0755L17.6383 18.0804L17.6268 18.0919L17.6202 18.0968L17.6136 18.1018L17.6021 18.1133L17.5955 18.1182L17.5889 18.1231L17.5824 18.1281L17.5594 18.1494L17.5528 18.1544L17.5347 18.1708L17.5232 18.1823L17.5117 18.1922L17.5002 18.202L17.4887 18.2119L17.4821 18.2168L17.4755 18.2218L17.469 18.2267L17.4624 18.2316L17.4558 18.2366L17.4492 18.2415L17.4427 18.2464L17.4361 18.2513L17.4246 18.2612L17.418 18.2661L17.4114 18.2711L17.4049 18.276L17.3983 18.2809L17.3868 18.2908L17.3506 18.322L17.326 18.3434C17.298 18.368 17.2684 18.3911 17.2405 18.4157L17.229 18.4256L17.2175 18.4354L17.206 18.4453L17.1994 18.4502L17.1928 18.4552L17.1813 18.465L17.1682 18.4749L17.155 18.4847L17.1484 18.4897L17.1419 18.4946L17.1353 18.4995L17.1287 18.5045L17.1221 18.5094L17.1156 18.5143L17.109 18.5193L17.1024 18.5242L17.0958 18.5291L17.0893 18.5341L17.0827 18.539L17.0761 18.5439L17.0695 18.5489L17.063 18.5538L17.0564 18.5587L17.0432 18.5686L17.0367 18.5735L17.0301 18.5784L17.0235 18.5834L17.017 18.5883L17.0104 18.5932L17.0038 18.5982L16.9972 18.6031L16.9907 18.608L16.9841 18.613L16.9709 18.6228L16.9644 18.6277L16.9578 18.6327L16.9512 18.6376L16.9446 18.6425L16.9381 18.6475L16.9315 18.6524L16.9249 18.6573L16.9183 18.6623L16.9118 18.6672L16.9052 18.6721L16.8986 18.6771L16.8855 18.6869L16.8789 18.6919L16.8723 18.6968L16.8657 18.7017L16.8592 18.7066L16.8526 18.7116L16.846 18.7165L16.8394 18.7214L16.8329 18.7264L16.8263 18.7313L16.8197 18.7362L16.8131 18.7412L16.8066 18.7461L16.8 18.751L16.7934 18.756L16.7868 18.7609L16.7803 18.7658L16.7737 18.7707L16.7671 18.7757L16.7605 18.7806L16.754 18.7855L16.7474 18.7905L16.7277 18.8053L16.7211 18.8102L16.7145 18.8151L16.7079 18.8201L16.7014 18.825L16.6948 18.8299L16.6882 18.8349L16.6751 18.8447L16.6685 18.8496L16.6619 18.8546L16.6553 18.8595L16.6488 18.8644L16.6422 18.8694L16.6356 18.8743L16.629 18.8792L16.6225 18.8842L16.6159 18.8891L16.6093 18.894L16.6027 18.899L16.5962 18.9039L16.5896 18.9088L16.583 18.9137L16.5764 18.9187L16.5699 18.9236L16.5633 18.9285L16.5436 18.9417L16.537 18.9466L16.5304 18.9516L16.5238 18.9565L16.5173 18.9614L16.5107 18.9663L16.5041 18.9713L16.4975 18.9762L16.491 18.9811L16.4844 18.9861L16.4778 18.991L16.4713 18.9959L16.4647 19.0009L16.4581 19.0058L16.4515 19.0107L16.445 19.0157L16.4318 19.0255L16.4252 19.0304L16.4187 19.0354L16.4121 19.0403L16.4055 19.0452L16.3989 19.0502L16.3924 19.0551L16.3858 19.06L16.3792 19.065L16.3726 19.0699L16.3661 19.0748L16.3595 19.0798L16.3529 19.0847L16.3463 19.0896L16.3398 19.0946L16.3332 19.0995L16.3266 19.1044L16.3135 19.1126L16.3003 19.1208L16.2937 19.1258L16.2872 19.1307L16.2806 19.1356L16.274 19.1406L16.2674 19.1455L16.2346 19.1669L16.2214 19.1751L16.1951 19.1932L16.1277 19.2359L16.1014 19.2523L16.0883 19.2606L16.062 19.277L16.0488 19.2852C16.0242 19.3 15.9995 19.3164 15.9749 19.3312L15.9683 19.3345C15.9025 19.374 15.8368 19.4134 15.7694 19.4529L15.7628 19.4562L15.7563 19.4611L15.7217 19.4808L15.7152 19.4841L15.6675 19.512L15.6609 19.5153L15.6478 19.5236L15.6412 19.5268L15.6346 19.5301L15.628 19.5334L15.6215 19.5367L15.6149 19.54L15.6083 19.5433L15.6017 19.5466L15.5952 19.5498L15.5886 19.5531L15.582 19.5564L15.5754 19.5597L15.5689 19.563L15.5623 19.5663L15.5557 19.5696L15.5492 19.5729L15.5426 19.5761L15.536 19.5794L15.5294 19.5827L15.5229 19.586L15.5163 19.5893L15.5097 19.5926L15.5031 19.5959L15.4966 19.5992L15.49 19.6024L15.4834 19.6057L15.4768 19.609L15.4703 19.6123L15.4555 19.6205L15.4407 19.6287L15.4259 19.637L15.4193 19.6403L15.4127 19.6435L15.4062 19.6468L15.3996 19.6501L15.3848 19.6583L15.3782 19.6616L15.3716 19.6649L15.3651 19.6682L15.3585 19.6715L15.3519 19.6748L15.3453 19.6781L15.3388 19.6813L15.3322 19.6846L15.3256 19.6879L15.319 19.6912L15.3125 19.6945L15.3059 19.6978L15.2993 19.7011L15.2927 19.7044L15.2862 19.7076L15.2796 19.7109L15.273 19.7142L15.2664 19.7175L15.2599 19.7208L15.2533 19.7241L15.2467 19.7274L15.2401 19.7307L15.2336 19.7339L15.227 19.7372L15.2204 19.7405L15.2138 19.7438L15.2073 19.7471L15.2007 19.7504L15.1941 19.7537L15.1875 19.757L15.181 19.7602L15.1744 19.7635L15.1678 19.7668L15.1612 19.7701L15.1547 19.7734L15.1481 19.7767L15.1415 19.78L15.1349 19.7832L15.1136 19.7931L15.107 19.7964L15.1004 19.7997L15.0939 19.803L15.0873 19.8063L15.0807 19.8095L15.0741 19.8128L15.0676 19.8161L15.0528 19.8227L15.038 19.8293L15.0314 19.8326L15.0248 19.8358L15.0182 19.8391L15.0117 19.8424L15.0051 19.8457L14.9985 19.849L14.9919 19.8523L14.9772 19.8589L14.9706 19.8621L14.8983 19.895C14.8161 19.9328 14.7339 19.969 14.6501 20.0035L14.6205 20.0167L14.6139 20.0199L14.6073 20.0232L14.5925 20.0298L14.5777 20.0364L14.5695 20.0397L14.5629 20.0429L14.5564 20.0462L14.5498 20.0495L14.535 20.0561L14.4906 20.0742L14.484 20.0775L14.4758 20.0808L14.4693 20.084L14.4397 20.0955L14.4315 20.0988L14.4249 20.1021L14.4167 20.1054L14.4101 20.1087L14.3953 20.1153L14.3871 20.1186L14.3197 20.1449L14.3115 20.1481L14.3032 20.1514L14.2802 20.1597L14.272 20.1629L14.2638 20.1662L14.2556 20.1695L14.2474 20.1728L14.2391 20.1761L14.2309 20.1794L14.2227 20.1827L14.2145 20.1859L14.2063 20.1892L14.1981 20.1925L14.1898 20.1958L14.1816 20.1991L14.1734 20.2024L14.1652 20.2057L14.157 20.209L14.1487 20.2122L14.1405 20.2155L14.1323 20.2188L14.1241 20.2221L14.1159 20.2254L14.1076 20.2287L14.0994 20.232L14.0912 20.2353L14.083 20.2385L14.0748 20.2418L14.0666 20.2451L14.0583 20.2484L14.0501 20.2517L14.0419 20.255L14.0337 20.2583L14.0189 20.2632L14.0107 20.2665L14.0025 20.2698L13.9942 20.2731L13.986 20.2764L13.9778 20.2796L13.9696 20.2829L13.9614 20.2862L13.9531 20.2895L13.9449 20.2928L13.9367 20.2961L13.9285 20.2994L13.9203 20.3027L13.9121 20.3059L13.9038 20.3092L13.8956 20.3125L13.8874 20.3158L13.8792 20.3191L13.871 20.3224L13.8627 20.3257L13.8545 20.329L13.8463 20.3322L13.8381 20.3355L13.8299 20.3388L13.8216 20.3421L13.8134 20.3454L13.8052 20.3487L13.797 20.352L13.7888 20.3552H13.7806L13.7723 20.3602L13.7641 20.3635H13.7559V20.3651H13.7477L13.7395 20.37H13.7312L13.723 20.375H13.7148L13.7066 20.3799H13.6984L13.6902 20.3848H13.6819L13.6737 20.3898H13.6655L13.6573 20.3947H13.6491L13.6408 20.3996H13.6326L13.6244 20.4046H13.6162L13.608 20.4095H13.5998L13.5915 20.4144L13.5767 20.4194L13.5619 20.4243L13.5472 20.4292H13.5389L13.5307 20.4341H13.5225L13.5143 20.4391L13.5061 20.4407H13.4978V20.4424H13.4896L13.4814 20.4473L13.4732 20.4489H13.465V20.4506H13.4568L13.4485 20.4555L13.4403 20.4572H13.4321V20.4588H13.4239L13.4157 20.4637L13.4074 20.4654H13.3992V20.467H13.391L13.3828 20.4719L13.3746 20.4736H13.3664V20.4752H13.3581L13.3499 20.4802L13.3417 20.4818H13.3335V20.4835H13.3253L13.317 20.4884L13.3088 20.49H13.3006V20.4917H13.2924L13.2842 20.4966L13.276 20.4982H13.2677V20.4999H13.2595L13.2513 20.5048H13.2431L13.2349 20.5098L13.2266 20.5114H13.2184V20.513H13.2102L13.202 20.5163L13.1938 20.518H13.1855V20.5196H13.1773L13.1691 20.5229L13.1609 20.5245H13.1527V20.5262H13.1445L13.1362 20.5295L13.128 20.5311H13.1198V20.5328H13.1116L13.1034 20.5361H13.0951L13.0869 20.5393H13.0787L13.0705 20.5426H13.0623L13.0541 20.5459L13.0458 20.5476H13.0376L13.0294 20.5508H13.0212L13.013 20.5541H13.0047V20.5558H12.9965L12.9883 20.5591H12.9801L12.9719 20.5624H12.9637L12.9554 20.5656H12.9472L12.939 20.5689H12.9308L12.9226 20.5722H12.9143L12.9061 20.5755H12.8979L12.8897 20.5788H12.8815L12.8732 20.5821H12.865L12.8568 20.5854L12.8486 20.587H12.8404V20.5886H12.8322L12.8239 20.5919L12.8157 20.5936H12.8075V20.5952H12.7993L12.7911 20.5985L12.7828 20.6002H12.7746V20.6018L12.7598 20.6051L12.745 20.6084L12.7368 20.61H12.7286V20.6117L12.6826 20.6215L12.6744 20.6232H12.6661V20.6248L12.6514 20.6281L12.6366 20.6314L12.6283 20.633H12.6201H12.6119L12.6037 20.6363L12.5955 20.638H12.5873L12.5708 20.6429L12.5544 20.6462H12.5462L12.5379 20.6495H12.5297L12.5215 20.6528L12.5051 20.656L12.4886 20.6593H12.4804L12.4722 20.6626H12.464H12.4558L12.4475 20.6659L12.3933 20.6758H12.3851H12.3769L12.3686 20.6791H12.3604H12.3522L12.3292 20.684L12.298 20.6889H12.2897L12.2815 20.6922H12.2733H12.2651H12.2569L12.2487 20.6955H12.2404L12.2092 20.7021H12.201H12.1928L12.1846 20.7054L12.1615 20.7086H12.1533L12.1451 20.7119H12.1369L12.1287 20.7152H12.1204L12.1122 20.7185H12.104H12.0958L12.0876 20.7218H12.0711L12.0547 20.7267H12.0383L12.03 20.73H12.0218H12.0136L12.0054 20.7316H11.9972L11.989 20.7333H11.9807L11.9725 20.7349H11.9643C11.8328 20.7547 11.7013 20.7711 11.5682 20.7859H11.56H11.5517H11.5435H11.5353H11.5271H11.5189H11.5106L11.4942 20.7875H11.486H11.4778H11.4696H11.4613H11.4449L11.4367 20.7892H11.4285H11.4202H11.412H11.4038H11.3956H11.3874H11.3792H11.3709H11.3627H11.3545H11.3463H11.3381H11.3298H11.3216H11.3134H11.3052H11.297H11.2887H11.2805H11.2723H11.2641H11.2559H11.2477H11.2394H11.2312H11.223H11.2148H11.2066L11.1901 20.7908H11.1819H11.1737H11.1655H11.1573L11.1178 20.7941C11.0701 20.7974 11.0225 20.8007 10.9748 20.8023C10.8877 20.8073 10.7989 20.8105 10.7118 20.8122H10.7036H10.6954H10.6872H10.6559H10.6477H10.6395H10.6313H10.6231H10.6148H10.6066H10.5984H10.5902H10.582H10.5738H10.5655H10.5573H10.5491H10.5409H10.5327H10.5244H10.5162H10.508H10.4916H10.4751H10.4587H10.434H10.4258H10.4176H10.4094H10.4012H10.3929H10.3847H10.3765H10.3683H10.3601H10.3519H10.3436H10.3354H10.3272H10.319H10.3108H10.3025H10.2943H10.2861H10.2779H10.2697H10.2615H10.2302H10.222H10.2138H10.2056C10.1185 20.8105 10.0297 20.8073 9.94258 20.8023C9.89491 20.8007 9.84725 20.7974 9.79958 20.7941L9.76013 20.7908H9.75191H9.7437H9.73548H9.72726H9.71082L9.7026 20.7892H9.69439H9.68617H9.67795H9.66973H9.66151H9.65329H9.64507H9.63686H9.62864H9.62042H9.6122H9.60398H9.59577H9.58755H9.57933H9.57111H9.56289H9.55467H9.54645H9.53824H9.53002H9.5218H9.51358H9.50536H9.49714H9.48893H9.48071H9.47249H9.45605L9.44783 20.7875H9.43962H9.4314H9.42318H9.40674L9.39852 20.7859H9.39031H9.38209H9.37387H9.36565H9.35743H9.34921C9.21608 20.7711 9.08458 20.7547 8.95309 20.7349H8.94487H8.93665L8.92843 20.7333H8.92022L8.912 20.7316H8.90378L8.89556 20.73H8.88734H8.87912L8.86269 20.7267H8.84625L8.82981 20.7218H8.82159L8.81338 20.7185H8.80516L8.79694 20.7152H8.78872H8.7805L8.77228 20.7119H8.76407L8.75585 20.7086L8.73284 20.7054H8.72462L8.7164 20.7021H8.70818L8.67695 20.6955H8.66873H8.66051L8.6523 20.6922H8.64408L8.63586 20.6889H8.62764H8.61942L8.58819 20.684L8.56518 20.6791H8.55696H8.54875L8.54053 20.6758H8.53231L8.52409 20.6725L8.46985 20.6626H8.46163L8.45341 20.6593H8.44519L8.43697 20.656H8.42876L8.41232 20.6511L8.39588 20.6478H8.38766L8.37945 20.6445H8.37123L8.36301 20.6412L8.34657 20.638L8.33014 20.6347H8.32192L8.3137 20.6314H8.30548H8.29726H8.28904L8.28083 20.6281L8.26603 20.6248L8.25124 20.6215L8.24302 20.6199H8.2348V20.6182L8.18878 20.6084L8.18056 20.6067H8.17234V20.6051L8.15755 20.6018L8.14276 20.5985L8.13454 20.5969H8.12632V20.5952H8.1181L8.10988 20.5919H8.10167L8.09345 20.5886L8.08523 20.587H8.07701V20.5854H8.06879L8.06057 20.5821L8.05236 20.5804H8.04414V20.5788H8.03592L8.0277 20.5755H8.01948L8.01126 20.5722H8.00305L7.99483 20.5689H7.98661L7.97839 20.5656H7.97017L7.96195 20.5624H7.95374L7.94552 20.5591H7.9373L7.92908 20.5558H7.92086L7.91264 20.5525H7.90443L7.89621 20.5492H7.88799L7.87977 20.5459L7.87155 20.5443H7.86333L7.85511 20.541H7.8469V20.5393H7.83868L7.83046 20.5361H7.82224L7.81402 20.5328H7.8058L7.79759 20.5295H7.78937L7.78115 20.5262L7.77293 20.5245H7.76471V20.5229H7.75649L7.74828 20.5196L7.74006 20.518H7.73184V20.5163H7.72362L7.7154 20.513L7.70718 20.5114H7.69897V20.5098H7.69075L7.68253 20.5048L7.67431 20.5032H7.66609V20.5015H7.65787L7.64966 20.4966H7.64144L7.63322 20.4917L7.625 20.49H7.61678V20.4884H7.60856L7.60035 20.4835L7.59213 20.4818H7.58391V20.4802H7.57569L7.56747 20.4752L7.55925 20.4736H7.55103V20.4719H7.54282L7.5346 20.467L7.52638 20.4654H7.51816V20.4637H7.50994L7.50173 20.4588L7.49351 20.4572H7.48529V20.4555H7.47707L7.46885 20.4506L7.46063 20.4489H7.45241V20.4473H7.4442L7.43598 20.4424L7.42776 20.4407H7.41954V20.4391H7.41132L7.4031 20.4341L7.39489 20.4325H7.38667V20.4309H7.37845L7.37023 20.4259L7.35544 20.421L7.34064 20.4161L7.32585 20.4111H7.31763L7.30941 20.4062H7.3012L7.29298 20.4013H7.28476L7.27654 20.3963H7.26832L7.2601 20.3914H7.25189L7.24367 20.3865H7.23545L7.22723 20.3815H7.21901L7.21079 20.3766H7.20258L7.19436 20.3717H7.18614L7.17792 20.3668H7.1697L7.16148 20.3618H7.15327L7.14505 20.3569L7.13026 20.352L7.12204 20.3487L7.11382 20.3454L7.1056 20.3421L7.09738 20.3388L7.08916 20.3355L7.08094 20.3322L7.07273 20.329L7.06451 20.3257L7.05629 20.3224L7.04807 20.3191L7.03985 20.3158L7.03163 20.3125L7.02342 20.3092L7.0152 20.3059L7.00698 20.3027L6.99876 20.2994L6.99054 20.2961L6.98232 20.2928L6.97411 20.2895L6.96589 20.2862L6.95767 20.2829L6.94945 20.2796L6.94123 20.2764L6.93301 20.2731L6.9248 20.2698L6.91658 20.2665L6.90836 20.2632L6.90014 20.2599L6.89192 20.2566L6.8837 20.2533L6.87549 20.2501L6.86727 20.2468L6.85905 20.2435L6.85083 20.2402L6.84261 20.2369L6.83439 20.2336L6.82618 20.2303L6.81796 20.227L6.80974 20.2238L6.80152 20.2205L6.7933 20.2172L6.78508 20.2139L6.77687 20.2106L6.76865 20.2073L6.76043 20.204L6.75221 20.2007L6.73742 20.1958L6.7292 20.1925L6.72098 20.1892L6.71276 20.1859L6.70454 20.1827L6.69632 20.1794L6.68811 20.1761L6.67331 20.1712L6.65852 20.1662L6.6503 20.1629L6.64208 20.1597L6.61907 20.1514L6.61085 20.1481L6.60264 20.1449L6.59442 20.1416L6.5862 20.1383L6.57798 20.135L6.56976 20.1317L6.56154 20.1284L6.53196 20.1169L6.52374 20.1136L6.51552 20.1103L6.5073 20.1071L6.50073 20.1038L6.49251 20.1005L6.48429 20.0972L6.47607 20.0939L6.46785 20.0906L6.45964 20.0873L6.43662 20.0791L6.42183 20.0725L6.41361 20.0693L6.40704 20.066L6.39882 20.0627L6.37581 20.0545L6.36102 20.0479L6.34622 20.0413L6.33143 20.0347L6.31664 20.0282L6.30184 20.0216L6.29527 20.0183L6.28869 20.015L6.25911 20.0019C6.17528 19.9673 6.0931 19.9295 6.01091 19.8934L5.93859 19.8605L5.93202 19.8572L5.91722 19.8506L5.91065 19.8474L5.90407 19.8441L5.8975 19.8408L5.89093 19.8375L5.88435 19.8342L5.87778 19.8309L5.8712 19.8276L5.85641 19.8211L5.84162 19.8145L5.83504 19.8112L5.82847 19.8079L5.82189 19.8046L5.81532 19.8013L5.80874 19.798L5.80217 19.7948L5.79559 19.7915L5.77422 19.7816L5.76765 19.7783L5.76108 19.775L5.7545 19.7717L5.74793 19.7685L5.74135 19.7652L5.73478 19.7619L5.7282 19.7586L5.72163 19.7553L5.71505 19.752L5.70848 19.7487L5.7019 19.7454L5.69533 19.7422L5.68875 19.7389L5.68218 19.7356L5.6756 19.7323L5.66903 19.729L5.66245 19.7257L5.65588 19.7224L5.6493 19.7191L5.64273 19.7159L5.63616 19.7126L5.62958 19.7093L5.62301 19.706L5.61643 19.7027L5.60986 19.6994L5.60328 19.6961L5.59671 19.6928L5.59013 19.6896L5.58356 19.6863L5.57698 19.683L5.57041 19.6797L5.56383 19.6764L5.55726 19.6731L5.55068 19.6698L5.54411 19.6665L5.53754 19.6633L5.53096 19.66L5.52439 19.6567L5.50959 19.6485L5.50302 19.6452L5.49644 19.6419L5.48987 19.6386L5.48329 19.6353L5.4685 19.6271L5.45371 19.6189L5.43892 19.6107L5.42412 19.6024L5.41755 19.5992L5.41097 19.5959L5.4044 19.5926L5.39782 19.5893L5.39125 19.586L5.38467 19.5827L5.3781 19.5794L5.37152 19.5761L5.36495 19.5729L5.35837 19.5696L5.3518 19.5663L5.34523 19.563L5.33865 19.5597L5.33208 19.5564L5.3255 19.5531L5.29756 19.5383L5.29098 19.5351L5.28441 19.5318L5.27784 19.5285L5.26469 19.5203L5.24332 19.5088L5.23674 19.5055C5.10689 19.4315 4.97869 19.3559 4.85212 19.277L4.78473 19.2343L4.73049 19.1997L4.71734 19.1915L4.64995 19.1488L4.6105 19.1225L4.60393 19.1176L4.59735 19.1126L4.5842 19.1044L4.57106 19.0962L4.56448 19.0913L4.55791 19.0863L4.55133 19.0814L4.54476 19.0765L4.53818 19.0715L4.53161 19.0666L4.52503 19.0617L4.51846 19.0567L4.51188 19.0518L4.50531 19.0469L4.49873 19.042L4.49216 19.037L4.48558 19.0321L4.47901 19.0272L4.47243 19.0222L4.46586 19.0173L4.45929 19.0124L4.45271 19.0074L4.44614 19.0025L4.43956 18.9976L4.43299 18.9926L4.42641 18.9877L4.41984 18.9828L4.41326 18.9778L4.40669 18.9729L4.40011 18.968L4.39354 18.9631L4.38696 18.9581L4.38039 18.9532L4.37381 18.9483L4.36724 18.9433L4.36067 18.9384L4.35409 18.9335L4.32779 18.9154L4.32122 18.9105L4.31464 18.9055L4.30807 18.9006L4.30149 18.8957L4.29492 18.8907L4.28834 18.8858L4.28177 18.8809L4.27519 18.8759L4.26862 18.871L4.23575 18.848L4.22917 18.8431L4.1963 18.8201L4.18972 18.8151L4.18315 18.8102L4.15028 18.7872L4.1437 18.7823L4.13713 18.7773L4.13055 18.7724L4.12398 18.7675L4.1174 18.7625L4.11083 18.7576L4.0911 18.7428L4.08453 18.7379L4.07795 18.7329L4.07138 18.728L4.0648 18.7231L4.05823 18.7181L4.05165 18.7132L4.04508 18.7083L4.03851 18.7034L4.03193 18.6984L4.02536 18.6935L4.01878 18.6886L4.01221 18.6836L4.00563 18.6787L3.99906 18.6738L3.99248 18.6688L3.98591 18.6639L3.97933 18.659L3.97276 18.654L3.96618 18.6491L3.95961 18.6442L3.95303 18.6393L3.94646 18.6343L3.93988 18.6294L3.93331 18.6245L3.92674 18.6195L3.92016 18.6146L3.91359 18.6097L3.90701 18.6047L3.90044 18.5998L3.89386 18.5949L3.88729 18.5899L3.88071 18.585L3.87414 18.5801L3.86756 18.5751L3.86099 18.5702L3.85441 18.5653L3.84784 18.5604L3.84126 18.5554L3.83469 18.5505L3.82811 18.5456L3.82154 18.5406L3.81497 18.5357L3.80839 18.5308L3.80182 18.5258L3.79524 18.5209L3.78867 18.516L3.78209 18.511L3.77552 18.5061L3.76894 18.5012L3.75579 18.4913L3.74264 18.4815L3.72949 18.4716L3.71799 18.4617L3.71141 18.4568L3.70484 18.4519L3.69827 18.4469L3.69169 18.442L3.68512 18.4371L3.67854 18.4322L3.67197 18.4272L3.66539 18.4223L3.65882 18.4174L3.65224 18.4124L3.64074 18.4026L3.63416 18.3976L3.62759 18.3927L3.62101 18.3878L3.60293 18.373L3.59636 18.368L3.58978 18.3631L3.58321 18.3582L3.57663 18.3533L3.57006 18.3483L3.56348 18.3434L3.55691 18.3385L3.55033 18.3335L3.54376 18.3286L3.53718 18.3237L3.53061 18.3187L3.52404 18.3138L3.51746 18.3089L3.51089 18.3039L3.50431 18.299L3.49774 18.2941L3.49116 18.2892L3.48459 18.2842L3.47801 18.2793L3.47144 18.2744L3.46486 18.2694L3.45829 18.2645L3.45171 18.2596L3.44514 18.2546L3.43856 18.2497L3.43199 18.2448L3.42542 18.2398L3.41884 18.2349L3.41227 18.23L3.40569 18.225L3.39912 18.2201L3.39254 18.2152L3.38597 18.2103L3.37939 18.2053L3.37282 18.2004L3.36624 18.1955L3.35967 18.1905L3.35309 18.1856L3.34652 18.1807L3.33994 18.1757L3.33337 18.1708L3.32679 18.1659L3.32022 18.1609L3.31365 18.156L3.30707 18.1511L3.3005 18.1462L3.29392 18.1412L3.28735 18.1363L3.28077 18.1314L3.2742 18.1264L3.26762 18.1215L3.24954 18.1051L3.23146 18.0886L3.22489 18.0837L3.21831 18.0788L3.21174 18.0738L3.20516 18.0689L3.19859 18.064L3.19201 18.059L3.18544 18.0541L3.17886 18.0492L3.17229 18.0442L3.16078 18.0327L3.15421 18.0278L3.14928 18.0229L3.1427 18.0179L3.13777 18.013L3.1312 18.0081L3.12627 18.0032L3.11969 17.9982L3.11312 17.9933L3.10654 17.9884L3.10161 17.9834L3.09668 17.9785L3.09175 17.9736L3.08682 17.9686L3.08189 17.9637L3.07531 17.9588L3.07038 17.9538L3.06545 17.9489L3.06052 17.944L3.05559 17.939L3.05066 17.9341L3.04573 17.9292L3.0408 17.9243L3.03586 17.9193L3.03093 17.9144L3.026 17.9095L3.02107 17.9045L3.01614 17.8996L3.01121 17.8947L3.00628 17.8897L3.00135 17.8848L2.98984 17.8733L2.98491 17.8684L2.97998 17.8634L2.97505 17.8585L2.97012 17.8536L2.96519 17.8486L2.96026 17.8437L2.94875 17.8322L2.93724 17.8207L2.93231 17.8158L2.92738 17.8108L2.92245 17.8059L2.91752 17.801L2.90601 17.7895L2.883 17.7665L2.85999 17.7435L2.84849 17.7319L2.83698 17.7204L2.82547 17.7089L2.82054 17.704L2.81561 17.6991L2.79424 17.6761L2.78931 17.6695L2.77288 17.6514L2.76795 17.6448L2.76301 17.6383L2.75151 17.6268L2.74658 17.6202L2.74165 17.6136L2.73672 17.607L2.73178 17.6005L2.72685 17.5939L2.72192 17.5873L2.71699 17.5807L2.71206 17.5742L2.70713 17.5676L2.7022 17.561L2.68576 17.5429L2.68083 17.5363L2.6759 17.5298L2.67097 17.5232L2.65946 17.5117L2.64796 17.5002L2.64303 17.4936L2.6381 17.487L2.61673 17.464L2.6118 17.4575L2.60687 17.4509L2.60193 17.4443L2.597 17.4377L2.59207 17.4312L2.58714 17.4246L2.58221 17.418L2.57728 17.4114L2.57235 17.4049L2.56742 17.3983L2.56249 17.3917L2.55756 17.3851L2.54769 17.3736C2.50989 17.3325 2.47373 17.2898 2.43757 17.2471L2.43264 17.2405L2.42771 17.2339L2.42277 17.2273L2.41784 17.2208L2.40305 17.2027L2.39319 17.1912L2.38826 17.1846L2.38333 17.178L2.3784 17.1715L2.37346 17.1649L2.36853 17.1583L2.3636 17.1517L2.35867 17.1452L2.35374 17.1386L2.34881 17.132L2.34388 17.1254L2.33402 17.1139L2.32909 17.1073L2.32415 17.1008L2.31429 17.0893L2.30936 17.0827L2.30443 17.0761L2.2995 17.0695L2.29457 17.063L2.28471 17.0498L2.27484 17.0383L2.26991 17.0317L2.26498 17.0252L2.26005 17.0186L2.25512 17.012L2.25019 17.0054L2.24526 16.9989L2.24033 16.9923L2.2354 16.9857L2.23046 16.9791L2.22553 16.9726L2.2206 16.966L2.21567 16.9594L2.21074 16.9528L2.20581 16.9463L2.20088 16.9397L2.19595 16.9331L2.19102 16.9265L2.18609 16.92L2.18115 16.9134L2.17129 16.9002L2.16636 16.8937L2.16143 16.8871L2.15157 16.8739L2.14664 16.8674L2.14171 16.8608L2.13678 16.8542L2.13184 16.8477L2.12691 16.8411L2.12198 16.8345L2.11705 16.8279L2.11212 16.8214L2.10719 16.8148L2.10226 16.8082L2.09733 16.8016L2.0924 16.7951L2.08747 16.7885L2.08253 16.7819L2.0776 16.7753L2.07267 16.7688L2.06774 16.7622L2.06281 16.7556L2.05788 16.749L2.05295 16.7425L2.04802 16.7359L2.04309 16.7293L2.03816 16.7227L2.03322 16.7162L2.02829 16.7096L2.02336 16.703L2.01843 16.6964L2.0135 16.6899L2.00857 16.6833L2.00364 16.6767L1.99871 16.6701L1.99378 16.6636L1.98884 16.657L1.97898 16.6438L1.97405 16.6373L1.96912 16.6307L1.96419 16.6241L1.95926 16.6175L1.95433 16.611L1.9494 16.6044L1.94447 16.5978L1.93953 16.5912L1.9346 16.5847L1.92967 16.5781L1.92474 16.5715L1.91981 16.5649L1.91488 16.5584L1.90995 16.5518L1.90502 16.5452L1.90009 16.5386L1.89516 16.5321L1.89022 16.5255L1.88529 16.5189L1.88036 16.5123L1.87543 16.5058L1.8705 16.4992L1.86557 16.4926L1.86064 16.486L1.85571 16.4795L1.85078 16.4729L1.84585 16.4663L1.84091 16.4597L1.83598 16.4532L1.83105 16.4466L1.82612 16.44L1.82119 16.4334L1.81626 16.4269L1.81133 16.4203L1.8064 16.4137L1.80147 16.4071L1.79654 16.4006L1.7916 16.394L1.78667 16.3874L1.78174 16.3808L1.77681 16.3743L1.77188 16.3677L1.76695 16.3611L1.76202 16.3545L1.75709 16.348L1.75216 16.3414L1.74722 16.3348L1.74229 16.3282L1.73736 16.3217L1.73243 16.3151L1.7275 16.3085L1.72257 16.302L1.71764 16.2954L1.71271 16.2888L1.70778 16.2822L1.70285 16.2757L1.69791 16.2691L1.69298 16.2625L1.68805 16.2559L1.68312 16.2494L1.67819 16.2428L1.67326 16.2362L1.66833 16.2296L1.6634 16.2231L1.65847 16.2165L1.65354 16.2099L1.64532 16.1968L1.6371 16.1836L1.62888 16.1705L1.62066 16.1573L1.61244 16.1442L1.60423 16.131L1.59601 16.1179L1.58779 16.1047L1.57957 16.0916L1.57135 16.0784L1.56313 16.0653L1.55491 16.0521L1.5467 16.039L1.53848 16.0258L1.53026 16.0127L1.52204 15.9995L1.51711 15.9929L1.51218 15.9864L1.50725 15.9798L1.50232 15.9732L1.4941 15.9601L1.48917 15.9535L1.48424 15.9469L1.47931 15.9403L1.47438 15.9338L1.46944 15.9272L1.46451 15.9206L1.45958 15.914L1.45465 15.9075L1.44972 15.9009L1.44479 15.8943L1.43986 15.8877L1.43493 15.8812L1.43 15.8746L1.42506 15.868L1.42013 15.8614L1.41685 15.8549L1.41192 15.8483L1.37575 15.7875L1.33959 15.725L1.33631 15.7184L1.32809 15.7053L1.3248 15.6987L1.32151 15.6921L1.31823 15.6856L1.31494 15.679L1.31165 15.6724L1.30836 15.6658L1.30508 15.6593L1.30179 15.6527L1.29357 15.6395L1.29028 15.633L1.287 15.6264L1.28371 15.6198L1.26727 15.5919L1.26398 15.5853L1.2607 15.5787L1.25248 15.5656L1.24919 15.559L1.2459 15.5524L1.22289 15.5113L1.21961 15.5048L1.21632 15.4982L1.20481 15.4768L1.20153 15.4703L1.19824 15.4637L1.19495 15.4571L1.19166 15.4505L1.18838 15.444L1.18509 15.4374L1.1818 15.4308L1.17851 15.4242L1.17523 15.4177L1.17194 15.4111L1.16865 15.4045L1.16536 15.3979L1.16208 15.3914L1.15879 15.3848L1.1555 15.3782L1.15222 15.3716L1.14893 15.3651L1.14564 15.3585L1.13742 15.3437L1.1292 15.3289L1.12592 15.3223L1.12263 15.3157L1.11934 15.3092L1.11605 15.3026L1.11277 15.296L1.10948 15.2894L1.10619 15.2829L1.1029 15.2763L1.09962 15.2697L1.09633 15.2631L1.09304 15.2566L1.08976 15.25L1.08647 15.2434L1.08318 15.2368L1.07989 15.2303L1.07661 15.2237L1.07332 15.2171L1.07003 15.2106L1.06674 15.204L1.06346 15.1974L1.06017 15.1908L1.05688 15.1843L1.05359 15.1777L1.05031 15.1711L1.04702 15.1645L1.04373 15.158L1.04045 15.1514L1.03716 15.1448L1.03387 15.1382L1.03058 15.1317L1.0273 15.1251L1.02401 15.1185L1.02072 15.1119L1.01743 15.1054L1.01415 15.0988L1.01086 15.0922L1.00757 15.0856L1.00428 15.0791L1.001 15.0725L0.99771 15.0659L0.994422 15.0593L0.991135 15.0528L0.987848 15.0462L0.98456 15.0396L0.981273 15.033L0.977986 15.0265L0.974698 15.0199L0.971411 15.0133L0.968124 15.0067L0.964836 15.0002L0.961549 14.9936L0.958262 14.987L0.954974 14.9804L0.951687 14.9739L0.948399 14.9673L0.945112 14.9607L0.941825 14.9541L0.938537 14.9476L0.93525 14.941L0.931963 14.9344L0.925388 14.9196L0.922101 14.913L0.918813 14.9065L0.915526 14.8999L0.912239 14.8933L0.908951 14.8867L0.905664 14.8802L0.902377 14.8736L0.899089 14.867L0.895802 14.8604L0.892515 14.8539L0.889227 14.8473L0.88594 14.8407L0.882653 14.8342L0.879365 14.8276L0.876078 14.821L0.872791 14.8144L0.869503 14.8079L0.866216 14.8013L0.862929 14.7947L0.859641 14.7881L0.856354 14.7816L0.853066 14.775L0.849779 14.7684L0.846492 14.7618L0.843204 14.7553L0.839917 14.7487L0.83663 14.7421L0.833342 14.7355L0.830055 14.729L0.826768 14.7224L0.82348 14.7158L0.820193 14.7092L0.816906 14.7027L0.813618 14.6961L0.810331 14.6895L0.807044 14.6829L0.803756 14.6747L0.800469 14.6681L0.797182 14.6616L0.793894 14.655L0.790607 14.6484L0.78732 14.6418L0.784032 14.6353L0.780745 14.6287L0.777457 14.6221L0.77417 14.6155L0.770883 14.6073L0.767595 14.6007L0.764308 14.5942L0.761021 14.5876L0.757733 14.581L0.754446 14.5744L0.751159 14.5679L0.747871 14.5613L0.744584 14.5531L0.741297 14.5465L0.734722 14.5317L0.728147 14.5169L0.721573 14.5021L0.714998 14.4873L0.711711 14.4808L0.708423 14.4742L0.701849 14.4594L0.698561 14.4512L0.695274 14.4446L0.688699 14.4298L0.682124 14.415L0.67555 14.4002L0.672262 14.392L0.668975 14.3854L0.665688 14.3772L0.6624 14.369L0.659113 14.3608L0.655826 14.3526L0.652538 14.3443L0.649251 14.3361L0.645964 14.3279L0.642676 14.3197L0.636102 14.3049L0.632814 14.2967L0.629527 14.2885L0.62624 14.2802L0.622952 14.272L0.619665 14.2638L0.616377 14.2556L0.61309 14.2474L0.609803 14.2391L0.606515 14.2309L0.603228 14.2227L0.599941 14.2145L0.596653 14.2063L0.593366 14.198L0.590079 14.1898L0.586791 14.1816L0.583504 14.1734L0.580217 14.1652L0.576929 14.157L0.573642 14.1487L0.570355 14.1405L0.567067 14.1323L0.56378 14.1241L0.560493 14.1159L0.557205 14.1076L0.552274 14.0929L0.548987 14.0846L0.5457 14.0764L0.540769 14.0616L0.537481 14.0534L0.534194 14.0452L0.522688 14.0156L0.519401 14.0074L0.516113 13.9992L0.506251 13.9696L0.50132 13.9548L0.498033 13.9466L0.494746 13.9383L0.491458 13.9301L0.488171 13.9219L0.484884 13.9137L0.479953 13.8989L0.476665 13.8907L0.473378 13.8825L0.470091 13.8742L0.466803 13.866L0.463516 13.8578L0.460229 13.8496L0.456941 13.8414L0.453654 13.8332L0.450366 13.8249L0.447079 13.8167L0.443792 13.8085L0.440504 13.8003L0.437217 13.7921L0.43393 13.7838L0.430642 13.7756L0.427355 13.7674L0.424068 13.7592L0.42078 13.751L0.417493 13.7428L0.414206 13.7345L0.410918 13.7263L0.407631 13.7181L0.404344 13.7099L0.401056 13.7017V13.6934H0.397769V13.6852L0.392838 13.677L0.391194 13.6688V13.6606H0.389551V13.6523L0.38462 13.6441L0.382976 13.6359V13.6277H0.381332V13.6195L0.376401 13.6113L0.374758 13.603V13.5948H0.373114V13.5866L0.368183 13.5784L0.366539 13.5702V13.5619H0.364895V13.5537L0.359964 13.5455V13.5373L0.355033 13.5291L0.35339 13.5209V13.5126L0.346815 13.4978L0.341884 13.4831L0.336953 13.4683L0.332022 13.4535L0.327091 13.4387L0.32216 13.4239L0.317229 13.4091L0.312298 13.3943L0.307367 13.3795L0.302436 13.3647V13.3565L0.297505 13.3483L0.295861 13.3401V13.3318H0.294218V13.3236L0.285999 13.3006L0.281068 13.2858V13.2776L0.276137 13.2694V13.2612L0.271206 13.2529V13.2447L0.266275 13.2365V13.2283L0.261344 13.2201L0.2597 13.2118V13.2036H0.258057V13.1954L0.253126 13.1872L0.248195 13.1724L0.243264 13.1576V13.1494L0.239976 13.1412V13.1329L0.236689 13.1247C0.225183 13.0836 0.215321 13.0425 0.205459 13.0015V12.9932L0.202172 12.985L0.190666 12.939L0.189022 12.9308V12.9226H0.187379C0.172586 12.8601 0.157793 12.7976 0.143 12.7368L0.141356 12.7286V12.7204H0.139712L0.12985 12.6744L0.128207 12.6661V12.6579H0.126563V12.6497L0.123276 12.6415L0.121632 12.6333V12.6251H0.119988V12.6168L0.116701 12.6086V12.6004V12.5922L0.113413 12.5774V12.5692V12.561V12.5527L0.110126 12.5445V12.5363V12.5281V12.5199L0.106839 12.5116V12.5034V12.4952V12.487L0.103551 12.4788L0.100264 12.4623L0.0969767 12.4459V12.4377L0.0936894 12.4295V12.4212L0.090402 12.413L0.0871147 12.3966V12.3884L0.0838273 12.3801V12.3719V12.3637L0.0788963 12.3473V12.3391L0.075609 12.3308V12.3226V12.3144V12.3062L0.0723216 12.298V12.2897L0.0690343 12.2815V12.2733V12.2651V12.2569L0.0657469 12.2487V12.2404V12.2322V12.224L0.0624596 12.2158V12.2076V12.1993V12.1911L0.0591722 12.1747V12.1665V12.1582L0.0558849 12.15V12.1418V12.1336V12.1254L0.0525975 12.1172V12.1089L0.0493102 12.0925V12.0843V12.0761L0.0460229 12.0678V12.0596V12.0514L0.0427355 12.035V12.0268L0.0410918 12.0185V12.0103V12.0021V11.9939L0.0394482 11.9857V11.9692H0.0378045V11.961L0.0361608 11.9528V11.9446L0.0345171 11.9364V11.9281L0.0328735 11.9199V11.9117V11.9035L0.0312298 11.8953V11.887V11.8788L0.0295861 11.8706V11.8624L0.0279424 11.8542V11.846V11.8377V11.8295L0.0262988 11.8213V11.8131V11.8049V11.7966L0.0246551 11.7884V11.7802V11.772V11.7638L0.0230114 11.7556V11.7473V11.7391V11.7309L0.0213678 11.7227V11.7145V11.7062V11.698L0.0197241 11.6898V11.6816V11.6734V11.6651L0.0180804 11.6569V11.6487V11.6405V11.6323L0.0147931 11.6158V11.6076V11.5994L0.0115057 11.583V11.5747V11.5665L0.00821837 11.5501V11.5419V11.5337L0.0065747 11.5254V11.5172L0.00493103 11.509V11.5008V11.4926V11.4843V11.4761V11.4679V11.4597V11.4515V11.4433V11.4268L0.00328735 11.4186V11.4104V11.4022V11.3939V11.3857V11.3775V11.3693V11.3611V11.3529V11.3446V11.3364V11.3282V11.32V11.3118V11.3035V11.2953V11.2871V11.2789V11.2707V11.2624V11.2542V11.246V11.2378V11.2296V11.2214V11.2131V11.2049V11.1967V11.1885V11.1803V11.172V11.1638V11.1556V11.1474V11.1392V11.131V11.1227V11.1145V11.1063V11.0981V11.0899V11.0816V11.0734V11.0652V11.057V11.0488V11.0406V11.0323V11.0241V11.0159V11.0077V10.9995V10.9912V10.983V10.9748V10.9666V10.9584V10.9501V10.9419V10.9337V10.9255V10.9173V10.9091V10.9008V10.8844V10.8762V10.868V10.8515V10.8433V10.8351V10.8269V10.8022V10.7858V10.7776L0 10.6904V10.6822V10.674V10.6263V10.6181V10.6017V10.5935V10.5853V10.577V10.5688V10.5606V10.5524V10.5442V10.5359V10.5277V10.5031V10.4949V10.4866V10.4784V10.4702V10.462V10.4538V10.4455V10.4291V10.4209V10.4127V10.3962V10.3798V10.3551V10.3469V10.3387V10.314V10.3058V10.2976V10.2894V10.2812V10.273V10.2647V10.2565V10.2319V10.2236V10.2154V10.2072V10.199V10.1908V10.1826V10.1743V10.1661V10.1579V10.1415V10.1332V10.0856V10.0774V10.0691L0.00328735 9.98203V9.97381V9.95737V9.93272V9.9245V9.91628V9.90806V9.89163V9.88341V9.87519V9.85875V9.85053V9.84231V9.8341V9.82588V9.81766V9.80944V9.80122V9.793V9.78479V9.77657V9.76835V9.76013V9.75191V9.74369V9.73548V9.72726V9.71904V9.71082V9.7026V9.69438V9.68617V9.67795V9.66973V9.66151V9.65329V9.64507V9.63686V9.62864V9.62042V9.6122V9.60398V9.59576V9.58755V9.57933V9.57111V9.56289V9.55467V9.54645V9.53824V9.53002V9.5218V9.51358V9.50536V9.49714V9.48892V9.48071V9.47249V9.46427V9.45605V9.44783V9.43962V9.4314V9.42318V9.41496V9.40674V9.39852V9.39031V9.38209V9.37387V9.36565V9.35743V9.34921V9.34099V9.33278V9.31634L0.00493103 9.30812V9.2999V9.29168V9.28347V9.27525V9.26703V9.25881V9.25059V9.24237L0.0065747 9.23416V9.22594L0.00821837 9.21772V9.2095V9.19306L0.0115057 9.18485V9.17663V9.16019L0.0147931 9.15197V9.14375V9.12732L0.0180804 9.1191V9.11088V9.10266V9.09444L0.0197241 9.08623V9.07801V9.06979V9.06157L0.0213678 9.05335V9.04513V9.03691V9.0287L0.0230114 9.02048V9.01226V9.00404V8.99582L0.0246551 8.98761V8.97939V8.97117V8.96295L0.0262988 8.95473V8.94651V8.9383V8.93008L0.0279424 8.92186V8.91364V8.90542V8.8972L0.0295861 8.88898V8.88077L0.0312298 8.87255V8.86433V8.85611L0.0328735 8.84789V8.83967V8.83146L0.0345171 8.82324V8.81502L0.0361608 8.8068V8.79858L0.0378045 8.79036V8.77393L0.0410918 8.76571V8.75749V8.74927L0.0427355 8.74105V8.73284V8.72462L0.0460229 8.70818V8.69996L0.0493102 8.69174V8.68353V8.67531V8.66709L0.0525975 8.65065V8.64243V8.63422L0.0558849 8.626V8.61778V8.60956V8.60134L0.0591722 8.59312V8.5849L0.0624596 8.56847V8.56025V8.55203L0.0657469 8.54381V8.53559V8.52738V8.51916L0.0690343 8.51094V8.50272V8.4945V8.48629L0.0723216 8.47807V8.46985V8.46163L0.075609 8.45341V8.44519V8.43697L0.0788963 8.42876V8.42054V8.41232L0.0838273 8.39588V8.38766L0.0871147 8.37945V8.37123V8.36301L0.0920457 8.34657V8.33835L0.095333 8.33014V8.32192L0.0986204 8.3137L0.101908 8.29726L0.105195 8.28083V8.27261L0.108482 8.26439V8.25617V8.24795V8.23973L0.11177 8.23152V8.2233V8.21508V8.20686L0.115057 8.19864V8.19042V8.18221H0.116701L0.119988 8.16741V8.15919V8.15098H0.121632V8.14276L0.124919 8.13454V8.12632V8.1181H0.126563V8.10988L0.12985 8.10167V8.09345V8.08523H0.131494L0.141356 8.03921L0.143 8.03099V8.02277H0.144643C0.157793 7.96031 0.172586 7.89785 0.189022 7.83703L0.190666 7.82882V7.8206H0.19231L0.203815 7.77457V7.76636L0.207103 7.75814C0.221896 7.69568 0.238333 7.63486 0.256413 7.5724L0.258057 7.56418V7.55597H0.2597V7.54775L0.264631 7.53953L0.266275 7.53131V7.52309H0.267919V7.51487L0.279424 7.48364V7.47543H0.281068V7.46721L0.285999 7.45899L0.297505 7.42118V7.41297H0.299149V7.40475L0.30408 7.39653L0.309011 7.38174L0.313942 7.36694L0.318873 7.35215V7.34393L0.323804 7.33571L0.325447 7.3275V7.31928L0.330378 7.31106V7.30284H0.332022V7.29462L0.336953 7.2864L0.341884 7.27161L0.346815 7.25682L0.351746 7.24202V7.23381L0.356677 7.22559L0.358321 7.21737V7.20915L0.363252 7.20093V7.19271H0.364895V7.1845L0.369826 7.17628L0.37147 7.16806V7.15984H0.373114V7.15162L0.378045 7.1434L0.379689 7.13519V7.12697H0.381332V7.11875L0.386263 7.11053L0.387907 7.10231V7.09409H0.389551V7.08588L0.394482 7.07766L0.396125 7.06944V7.06122H0.399413V7.053L0.404344 7.04478L0.407631 7.03657L0.410918 7.02835L0.414206 7.02013L0.417493 7.01191L0.42078 7.00369L0.424068 6.99547L0.427355 6.98726L0.430642 6.97904L0.43393 6.97082L0.437217 6.9626L0.440504 6.95438L0.443792 6.94616L0.447079 6.93794L0.450366 6.92973L0.453654 6.92151L0.456941 6.91329L0.460229 6.90507L0.463516 6.89685L0.468447 6.88206L0.473378 6.86727L0.476665 6.85905L0.481596 6.84425L0.484884 6.83604L0.488171 6.82782L0.50132 6.79001L0.511182 6.76043L0.51447 6.75221L0.534194 6.69961L0.539125 6.68482L0.544056 6.67003L0.547343 6.66181L0.550631 6.65359L0.553918 6.64537L0.557205 6.63715L0.560493 6.62893L0.56378 6.62072L0.568711 6.60592L0.571998 6.5977L0.575286 6.58949L0.578573 6.58127L0.58186 6.57305L0.585148 6.56483L0.588435 6.55661L0.591722 6.54839L0.59501 6.54018L0.598297 6.53196L0.601584 6.52374L0.604872 6.51552L0.608159 6.5073L0.611446 6.49908L0.614734 6.49087L0.618021 6.48265L0.621309 6.47443L0.624596 6.46621L0.627883 6.45799L0.631171 6.44977L0.634458 6.44156L0.637745 6.43334L0.641033 6.42676L0.64432 6.41854L0.647607 6.41197L0.650895 6.40375L0.654182 6.39718L0.657469 6.38896L0.660757 6.38238L0.664044 6.37416L0.667331 6.36759L0.670619 6.35937L0.673906 6.35115L0.677193 6.34293L0.680481 6.33636L0.683768 6.32814L0.687056 6.32157L0.690343 6.31335L0.69363 6.30677L0.696918 6.29856L0.700205 6.29198L0.703492 6.28541L0.70678 6.27883L0.710067 6.27061L0.713354 6.26404L0.719929 6.24925L0.726504 6.23445L0.733078 6.21966L0.736366 6.21308L0.739653 6.20651L0.74294 6.19994L0.746228 6.19336L0.749515 6.18679L0.752802 6.18021L0.75609 6.17364L0.759377 6.16706L0.762664 6.16049L0.765952 6.15391L0.769239 6.14734L0.772527 6.14076L0.775814 6.13419L0.779101 6.12761L0.782389 6.12104L0.785676 6.11446L0.788963 6.10789L0.792251 6.10131L0.795538 6.09474L0.798825 6.08817L0.802113 6.08159L0.8054 6.07502L0.808687 6.06844L0.811975 6.06187L0.815262 6.05529L0.818549 6.04872L0.821837 6.04214L0.825124 6.03557L0.828411 6.02899L0.831699 6.02242L0.834986 6.01584L0.838273 6.00927L0.841561 6.00269L0.844848 5.99612L0.848135 5.98954L0.851423 5.98297L0.85471 5.9764L0.857998 5.96982L0.861285 5.96325L0.864572 5.95667L0.86786 5.9501L0.871147 5.94352L0.874434 5.93695L0.877722 5.93037L0.881009 5.9238L0.884296 5.91722L0.887584 5.91065L0.890871 5.90407L0.894158 5.8975L0.897446 5.89092L0.900733 5.88435L0.90402 5.87778L0.907308 5.8712L0.910595 5.86463L0.913882 5.85805L0.91717 5.85148L0.923744 5.83668L0.927032 5.83011L0.930319 5.82353L0.933607 5.81696L0.936894 5.81039L0.940181 5.80381L0.943469 5.79724L0.946756 5.79066L0.950043 5.78409L0.953331 5.77751L0.956618 5.77094L0.959905 5.76436L0.963193 5.75779L0.96648 5.75121L0.969767 5.74464L0.973055 5.73806L0.976342 5.73149L0.979629 5.72491L0.982917 5.71834L0.986204 5.71176L0.989491 5.70519L0.992779 5.69862L0.996066 5.69204L0.999353 5.68547L1.00264 5.67889L1.00593 5.67232L1.00922 5.66574L1.0125 5.65917L1.01579 5.65259L1.01908 5.64602L1.02236 5.63944L1.02565 5.63287L1.02894 5.62629L1.03223 5.61972L1.03551 5.61314L1.0388 5.60657L1.04209 5.59999L1.04538 5.59342L1.04866 5.58685L1.05195 5.58027L1.05524 5.5737L1.05853 5.56712L1.06181 5.56055L1.0651 5.55397L1.06839 5.5474L1.07168 5.54082L1.07496 5.53425L1.07825 5.52767L1.08154 5.5211L1.08482 5.51452L1.08811 5.50795L1.0914 5.50137L1.09469 5.4948L1.09797 5.48822L1.10126 5.48165L1.10455 5.47508L1.10784 5.4685L1.11112 5.46193L1.11441 5.45535L1.1177 5.44878L1.12099 5.4422L1.1292 5.42741L1.13742 5.41262L1.14071 5.40604L1.144 5.39947L1.14728 5.39289L1.15057 5.38632L1.15386 5.37974L1.15715 5.37317L1.16043 5.36659L1.16372 5.36002L1.16701 5.35344L1.1703 5.34687L1.17358 5.34029L1.17687 5.33372L1.18016 5.32714L1.18344 5.32057L1.18673 5.314L1.19002 5.30742L1.19331 5.30085L1.19659 5.29427L1.2081 5.2729L1.21139 5.26633L1.21467 5.25975L1.22289 5.24496L1.22618 5.23839L1.23769 5.21702L1.24097 5.21044L1.24426 5.20387L1.25248 5.19072L1.25577 5.18415L1.25905 5.17757L1.27056 5.1562L1.27385 5.14963L1.27713 5.14305L1.28042 5.13648L1.28371 5.1299L1.287 5.12333L1.29028 5.11676L1.29357 5.11018L1.29686 5.10361L1.30015 5.09703L1.30343 5.09046L1.30672 5.08388L1.31001 5.07731L1.3133 5.07073L1.31658 5.06416L1.31987 5.05758L1.32316 5.05101L1.32644 5.04443L1.33466 5.03128L1.33795 5.02471L1.34124 5.01813L1.34452 5.01156L1.34781 5.00498L1.35274 4.99841L1.35603 4.99184L1.35932 4.98526L1.36425 4.97869L1.36754 4.97211L1.37247 4.96554L1.37575 4.95896L1.37904 4.95239L1.38397 4.94581L1.3889 4.93924L1.39384 4.93266L1.39712 4.92609L1.40205 4.91951L1.40534 4.91294L1.41027 4.90636L1.4152 4.89979L1.42013 4.89322L1.42835 4.88007L1.43328 4.87349L1.43821 4.86692L1.44315 4.86034L1.44808 4.85377L1.45301 4.84719L1.45794 4.84062L1.46287 4.83404L1.47602 4.81432L1.48095 4.80774L1.48588 4.80117L1.49081 4.79459L1.50396 4.77487L1.51218 4.76172L1.51711 4.75515L1.52204 4.74857L1.52697 4.742L1.5319 4.73542L1.53683 4.72885L1.54177 4.72227L1.5467 4.7157L1.55163 4.70912L1.55656 4.70255L1.56149 4.69597L1.56642 4.6894L1.57135 4.68283L1.57628 4.67625L1.58121 4.66968L1.58614 4.6631L1.59108 4.65653L1.59601 4.64995L1.60094 4.64338L1.60587 4.6368L1.6108 4.63023L1.61573 4.62365L1.62066 4.61708L1.62559 4.6105L1.63052 4.60393L1.63545 4.59735L1.64039 4.59078L1.6486 4.57763L1.65682 4.56448L1.66175 4.55791L1.66668 4.55133L1.67162 4.54476L1.67655 4.53818L1.68148 4.53161L1.68641 4.52503L1.69134 4.51846L1.69627 4.51188L1.7012 4.50531L1.70613 4.49873L1.71106 4.49216L1.716 4.48558L1.72093 4.47901L1.72586 4.47243L1.73079 4.46586L1.73572 4.45929L1.74065 4.45271L1.74558 4.44614L1.75051 4.43956L1.75544 4.43299L1.76037 4.42641L1.76531 4.41984L1.77024 4.41326L1.77517 4.40669L1.7801 4.40011L1.78503 4.39354L1.78996 4.38696L1.79489 4.38039L1.79982 4.37381L1.80475 4.36724L1.80968 4.36066L1.81462 4.35409L1.81955 4.34752L1.82448 4.34094L1.82941 4.33437L1.83434 4.32779L1.83927 4.32122L1.8442 4.31464L1.84913 4.30807L1.85406 4.30149L1.85899 4.29492L1.86393 4.28834L1.86886 4.28177L1.87379 4.27519L1.87872 4.26862L1.88365 4.26204L1.88858 4.25547L1.89351 4.2489L1.89844 4.24232L1.90337 4.23575L1.9083 4.22917L1.91324 4.2226L1.91817 4.21602L1.9231 4.20945L1.92803 4.20287L1.93296 4.1963L1.93789 4.18972L1.94282 4.18315L1.94775 4.17657L1.95268 4.17L1.95761 4.16342L1.96748 4.15027L1.97241 4.1437L1.97734 4.13713L1.98227 4.13055L1.9872 4.12398L1.99213 4.1174L1.99706 4.11083L2.00199 4.10425L2.00693 4.09768L2.01186 4.0911L2.01679 4.08453L2.02172 4.07795L2.02665 4.07138L2.03158 4.0648L2.03651 4.05823L2.04144 4.05165L2.04637 4.04508L2.0513 4.03851L2.05624 4.03193L2.06117 4.02536L2.0661 4.01878L2.07103 4.01221L2.07596 4.00563L2.08089 3.99906L2.08582 3.99248L2.09075 3.98591L2.09568 3.97933L2.10061 3.97276L2.10555 3.96618L2.11048 3.95961L2.11541 3.95303L2.12034 3.94646L2.12527 3.93988L2.1302 3.93331L2.13513 3.92674L2.14006 3.92016L2.14499 3.91359L2.14992 3.90701L2.15486 3.90044L2.15979 3.89386L2.16472 3.88729L2.16965 3.88071L2.17458 3.87414L2.17951 3.86756L2.18444 3.86099L2.18937 3.85441L2.1943 3.84784L2.19923 3.84126L2.20417 3.83469L2.2091 3.82811L2.21403 3.82154L2.21896 3.81497L2.22389 3.80839L2.22882 3.80182L2.23375 3.79524L2.23868 3.78867L2.24361 3.78209L2.24855 3.77552L2.25348 3.76894L2.25841 3.76237L2.26334 3.75579L2.26827 3.74922L2.27813 3.73607L2.28799 3.72456L2.29786 3.71141L2.30772 3.69826L2.31265 3.69169L2.31758 3.68512L2.32744 3.67361L2.3373 3.6621L2.34717 3.6506L2.3521 3.64402L2.35703 3.63745L2.36196 3.63087L2.37675 3.61279L2.38168 3.60622L2.38661 3.59964L2.39154 3.59307L2.42277 3.55691L2.42771 3.55033L2.43264 3.54376L2.43757 3.53718L2.4425 3.53061C2.47866 3.48787 2.51646 3.44678 2.55262 3.40405L2.56249 3.39254L2.56742 3.38597L2.57235 3.37939L2.57728 3.37282L2.58221 3.36624L2.58714 3.35967L2.59207 3.35309L2.597 3.34652L2.60193 3.33994L2.60687 3.33337L2.6118 3.32679L2.61673 3.32022L2.62166 3.31365L2.63316 3.30214L2.64467 3.29063L2.6496 3.28406L2.65453 3.27748L2.66604 3.26598L2.67097 3.2594L2.6759 3.25283L2.68083 3.24625L2.68576 3.23968L2.69069 3.23311L2.69562 3.22653L2.70549 3.21502L2.71042 3.20845L2.71535 3.20188L2.72028 3.1953L2.72521 3.18873L2.73014 3.18215L2.73507 3.17722L2.74 3.17065L2.74493 3.16571L2.74987 3.15914L2.7548 3.15421L2.75973 3.14763L2.76466 3.1427L2.76959 3.13613L2.77452 3.1312L2.77945 3.12462L2.78438 3.11969L2.78931 3.11312L2.79424 3.10819L2.81561 3.08517L2.82054 3.0786L2.82547 3.07367L2.83698 3.06216L2.84849 3.05066L2.85999 3.03915L2.86492 3.03258L2.88136 3.01614L2.90437 2.99313L2.91588 2.98162L2.92081 2.97669L2.92574 2.97176L2.93067 2.96683L2.9356 2.9619L2.94711 2.95039L2.95861 2.93889L2.96354 2.93396L2.96847 2.92903L2.97341 2.92409L2.97834 2.91916L2.98327 2.91423L2.9882 2.9093L2.9997 2.8978L3.00463 2.89286L3.00957 2.88793L3.0145 2.883L3.01943 2.87807L3.02436 2.87314L3.02929 2.86821L3.03422 2.86328L3.03915 2.85835L3.04408 2.85342L3.04901 2.84849L3.05395 2.84355L3.05888 2.83862L3.06381 2.83369L3.06874 2.82876L3.07367 2.82383L3.08024 2.8189L3.08517 2.81397L3.09011 2.80904L3.09504 2.80411L3.09997 2.79918L3.1049 2.79424L3.11147 2.78931L3.11805 2.78438L3.12462 2.77945L3.12955 2.77452L3.13613 2.76959L3.14106 2.76466L3.14763 2.75973L3.15257 2.7548L3.15914 2.74987L3.17065 2.73836L3.17722 2.73343L3.18379 2.7285L3.19037 2.72357L3.19694 2.71864L3.20352 2.7137L3.21009 2.70877L3.21667 2.70384L3.22324 2.69891L3.22982 2.69398L3.2479 2.67754L3.26598 2.66111L3.27255 2.65618L3.27913 2.65125L3.2857 2.64631L3.29228 2.64138L3.29885 2.63645L3.30543 2.63152L3.312 2.62659L3.31858 2.62166L3.32515 2.61673L3.33173 2.6118L3.3383 2.60687L3.34487 2.60193L3.35145 2.597L3.35802 2.59207L3.3646 2.58714L3.37117 2.58221L3.37775 2.57728L3.38925 2.56742L3.39583 2.56249L3.4024 2.55756L3.40898 2.55262L3.41555 2.54769L3.42213 2.54276L3.43363 2.5329L3.44021 2.52797L3.44678 2.52304L3.45336 2.51811L3.45993 2.51318L3.46651 2.50825L3.47308 2.50331L3.47966 2.49838L3.48623 2.49345L3.49281 2.48852L3.49938 2.48359L3.50596 2.47866L3.51253 2.47373L3.5191 2.4688L3.52568 2.46387L3.53225 2.45894L3.53883 2.454L3.5454 2.44907L3.55198 2.44414L3.55855 2.43921L3.56513 2.43428L3.5717 2.42935L3.57828 2.42442L3.58485 2.41949L3.59143 2.41456L3.598 2.40962L3.60458 2.40469L3.61115 2.39976L3.61772 2.39483L3.6243 2.3899L3.63087 2.38497L3.63745 2.38004L3.64402 2.37511L3.6506 2.37018L3.65717 2.36525L3.66375 2.36031L3.67032 2.35538L3.6769 2.35045L3.68347 2.34552L3.69005 2.34059L3.69662 2.33566L3.7032 2.33073L3.70977 2.3258L3.71635 2.32087L3.72785 2.311L3.741 2.30114L3.74758 2.29621L3.75415 2.29128L3.7673 2.28142L3.77387 2.27649L3.78045 2.27156L3.78702 2.26663L3.7936 2.26169L3.80017 2.25676L3.80675 2.25183L3.8199 2.24197L3.83305 2.23211L3.83962 2.22718L3.8462 2.22225L3.85277 2.21732L3.85934 2.21238L3.86592 2.20745L3.87249 2.20252L3.88564 2.19266L3.90372 2.17787L3.9103 2.17294L3.91687 2.168L3.93495 2.15321L3.9481 2.14335L3.96618 2.12856L3.97276 2.12363L3.99741 2.1039L4.01714 2.08911L4.02371 2.08418L4.03029 2.07925C4.06645 2.0513 4.10261 2.02501 4.13877 1.99706C4.24396 1.91981 4.34916 1.8442 4.45764 1.77024L4.46422 1.7653L4.47079 1.76037L4.47737 1.75544L4.48394 1.75051L4.49052 1.74558L4.49709 1.74065L4.50366 1.73572L4.51024 1.73079L4.51681 1.72586L4.52339 1.72093L4.52996 1.71599L4.53654 1.71106L4.54311 1.70613L4.54969 1.7012L4.55626 1.69627L4.56941 1.68805L4.57599 1.68312L4.58256 1.67819L4.58914 1.67326L4.59571 1.66833L4.60229 1.6634L4.60886 1.65847L4.61543 1.65354L4.62201 1.6486L4.62858 1.64367L4.63516 1.63874L4.64173 1.63381L4.64831 1.62888L4.65488 1.62395L4.66803 1.61573L4.67461 1.6108L4.68118 1.60587L4.69433 1.59765L4.70091 1.59272L4.70748 1.58779L4.71406 1.58286L4.72063 1.57793L4.74693 1.56149L4.7535 1.55656L4.76008 1.55163L4.76665 1.5467C4.80281 1.52368 4.83897 1.50067 4.87513 1.47931L4.88828 1.47109L4.92938 1.44643L4.93595 1.4415L4.94253 1.43821L4.9491 1.43328L4.95568 1.42835L4.96225 1.42506L4.96882 1.42178L4.98197 1.41356L4.98855 1.40863L4.99512 1.40534L5.0017 1.40041L5.00827 1.39712L5.01485 1.39219L5.02142 1.3889L5.028 1.38562L5.03457 1.38233L5.04115 1.37904L5.04772 1.37575L5.0543 1.37247L5.06744 1.36425L5.07402 1.36096L5.08059 1.35767L5.08717 1.35439L5.09374 1.3511L5.10032 1.34781L5.10689 1.34452L5.11347 1.34124L5.12004 1.33795L5.12662 1.33466L5.13319 1.33138L5.13977 1.32809L5.14634 1.3248L5.15292 1.32151L5.15949 1.31823L5.16607 1.31494L5.17264 1.31165L5.17921 1.30836L5.18579 1.30508L5.19236 1.30179L5.19894 1.2985L5.20551 1.29521L5.21209 1.29193L5.21866 1.28864L5.22524 1.28535L5.23181 1.28207L5.23839 1.27878L5.24496 1.27549L5.25154 1.2722L5.25811 1.26892L5.26469 1.26563L5.27126 1.26234L5.27784 1.25905L5.28441 1.25577L5.29098 1.25248L5.29756 1.24919L5.30413 1.2459L5.31071 1.24262L5.31728 1.23933L5.32386 1.23604L5.33043 1.23275L5.33701 1.22947L5.34358 1.22618L5.35016 1.22289L5.35673 1.21961L5.36331 1.21632L5.36988 1.21303L5.37646 1.20974L5.38303 1.20646L5.38961 1.20317L5.4044 1.19495L5.41919 1.18673L5.43398 1.17851L5.44878 1.1703L5.45535 1.16701L5.46193 1.16372L5.4685 1.16043L5.47508 1.15715L5.48987 1.14893L5.49644 1.14564L5.50302 1.14235L5.50959 1.13907L5.51617 1.13578L5.52274 1.13249L5.52932 1.1292L5.53589 1.12592L5.54247 1.12263L5.54904 1.11934L5.55562 1.11605L5.56219 1.11277L5.56877 1.10948L5.57534 1.10619L5.58191 1.1029L5.58849 1.09962L5.59506 1.09633L5.60164 1.09304L5.60821 1.08976L5.61479 1.08647L5.62136 1.08318L5.62794 1.07989L5.63451 1.07661L5.64109 1.07332L5.64766 1.07003L5.65424 1.06674L5.66081 1.06346L5.66739 1.06017L5.67396 1.05688L5.68053 1.05359L5.68711 1.05031L5.69368 1.04702L5.70026 1.04373L5.70683 1.04045L5.71341 1.03716L5.71998 1.03387L5.72656 1.03058L5.73313 1.0273L5.73971 1.02401L5.74628 1.02072L5.75286 1.01743L5.75943 1.01415L5.76601 1.01086L5.77258 1.00757L5.77916 1.00428L5.78573 1.001L5.7923 0.99771L5.79888 0.994422L5.80545 0.991135L5.81203 0.987848L5.8186 0.98456L5.82518 0.981273L5.83175 0.977986L5.83833 0.974698L5.8449 0.971411L5.85148 0.968123L5.85805 0.964836L5.86463 0.961549L5.8712 0.958261L5.87778 0.954974L5.88435 0.951687L5.89093 0.948399L5.8975 0.945112L5.90407 0.941825L5.91065 0.938537L5.91722 0.93525L5.9238 0.931963L5.93037 0.928675L5.93695 0.925388L5.94352 0.922101L5.9501 0.918813L5.95667 0.915526L5.96325 0.912239L5.97804 0.905664L5.98461 0.902377C6.05529 0.871147 6.12597 0.839917 6.19665 0.808687L6.20322 0.8054L6.2098 0.802113L6.22459 0.795538L6.23938 0.788963L6.24596 0.785676L6.25253 0.782388L6.25911 0.779101L6.26568 0.775814L6.27226 0.772526L6.27883 0.769239L6.29363 0.762664L6.30842 0.75609L6.32321 0.749515L6.33143 0.746228L6.338 0.74294L6.34458 0.739653L6.3528 0.736366L6.36759 0.729791L6.38238 0.723216L6.3906 0.719929L6.39718 0.716642L6.40375 0.713354L6.41197 0.710067L6.42676 0.703492L6.43498 0.700205L6.4432 0.696917L6.44977 0.69363L6.45799 0.690343L6.47279 0.683768L6.481 0.680481L6.48922 0.677193L6.49744 0.673906L6.50566 0.670619L6.52045 0.665688L6.53524 0.659113L6.54346 0.655826L6.55168 0.652538L6.5599 0.649251L6.56812 0.645964L6.57634 0.642676L6.58456 0.639389L6.59277 0.636101L6.60099 0.632814L6.61579 0.627883L6.63058 0.622952L6.65359 0.614734L6.66181 0.611446L6.67003 0.608159L6.67825 0.604872L6.69304 0.599941L6.70126 0.596653L6.70947 0.593366L6.71769 0.590079L6.72591 0.586791L6.73413 0.583504L6.74235 0.580217L6.75057 0.576929L6.75878 0.573642L6.767 0.570355L6.77522 0.567067L6.78344 0.56378L6.79166 0.560493L6.79988 0.557205L6.80809 0.553918L6.81631 0.550631L6.82453 0.547343L6.83275 0.544056L6.84097 0.540768L6.84919 0.537481L6.8574 0.534194L6.86562 0.530906L6.88863 0.522688L6.90343 0.517757C6.99712 0.486527 7.09081 0.455297 7.1845 0.425711H7.19271V0.424068H7.20093L7.20915 0.419137H7.21737L7.24038 0.409275L7.2486 0.407631H7.25682L7.27161 0.401056L7.2864 0.396125H7.29462L7.30284 0.391194L7.31106 0.389551H7.31928V0.387907H7.3275L7.33571 0.382976L7.34393 0.381332H7.35215V0.379689L7.39817 0.366539L7.40639 0.364895C7.46228 0.348459 7.51816 0.333666 7.57569 0.317229H7.58391V0.315585H7.59213L7.60035 0.312298L7.61514 0.309011L7.62993 0.30408L7.63815 0.302436H7.64637V0.300792H7.65459L7.66281 0.297505L7.67102 0.295861H7.67924V0.294217H7.68746L7.69568 0.29093L7.74992 0.277781H7.75814L7.76636 0.274493H7.77457L7.78937 0.267919L7.80416 0.264631L7.81238 0.262988H7.8206L7.82882 0.2597H7.83703V0.258057H7.84525L7.85347 0.254769L7.86169 0.253126H7.86991V0.251482L7.8847 0.248195L7.89949 0.244907L7.90771 0.243264H7.91593V0.24162H7.92415L7.93237 0.238333L7.94059 0.236689H7.9488V0.235045H7.95702L7.96524 0.231758L7.98003 0.228471L7.99483 0.225183L8.00305 0.22354H8.01126V0.221896H8.01948L8.0277 0.218609L8.03592 0.216965H8.04414V0.215321H8.05236L8.06057 0.212034L8.06879 0.21039H8.07701V0.208746H8.08523L8.09345 0.205459L8.10167 0.203815H8.10988V0.202172H8.1181L8.12632 0.198884L8.13454 0.197241H8.14276V0.195597H8.15098L8.15919 0.19231H8.16741L8.17563 0.189022H8.18385L8.19207 0.185735H8.20029L8.2085 0.182448H8.21672L8.22494 0.17916L8.24138 0.175873L8.25781 0.172586H8.26603L8.27425 0.169298H8.28247L8.29069 0.166011L8.30713 0.162724L8.32356 0.159436H8.33178L8.34 0.156149H8.34822H8.35643L8.39588 0.147931H8.4041H8.41232L8.42054 0.144643L8.43697 0.141356H8.44519L8.45341 0.138069H8.46163L8.48464 0.133138L8.51587 0.128207H8.52409L8.53231 0.124919H8.54053H8.54875H8.55696L8.56518 0.121632H8.5734L8.58162 0.118344H8.58984L8.59805 0.115057H8.60627L8.61449 0.11177H8.62271L8.63093 0.108482H8.63915L8.64737 0.105195H8.65558L8.6638 0.101908L8.68024 0.0986204L8.69668 0.095333H8.70489L8.71311 0.0920457H8.72133L8.72955 0.0887583H8.74599L8.76242 0.0838273H8.77886L8.78708 0.08054H8.7953H8.80351L8.81173 0.0788963H8.81995L8.82817 0.0772526H8.83639L8.84461 0.075609H8.85282C8.98432 0.0558849 9.11581 0.0394482 9.24895 0.0246551H9.25717H9.26539H9.2736H9.28182H9.29004H9.29826H9.30648L9.32292 0.0230114H9.33113H9.33935H9.34757H9.35579H9.36401H9.37223H9.38044H9.38866H9.39688H9.4051H9.42154L9.42975 0.0213678H9.43797L9.48564 0.0180804H9.49386H9.50208H9.51851L9.52673 0.0164367H9.53495H9.54317H9.55139H9.5596H9.56782H9.58426L9.59248 0.0147931H9.6007H9.60891H9.61713H9.62535H9.63357H9.64179H9.65001H9.65822H9.66644H9.68288H9.6911H9.69932H9.70753H9.71575H9.72397H9.73219H9.74041H9.74863H9.75684H9.76506H9.77328H9.79794L9.8456 0.0115057C9.98038 0.00493101 10.1168 0.00164367 10.2532 0H10.2615H10.2697H10.2779H10.2861H10.2943H10.319H10.3272H10.3436H10.3601L10.5376 0.00328734Z" fill="#AECD60"/>
<path d="M20.0003 6.07843L12.4575 13.6213C11.5206 14.5581 11.0521 15.0266 10.5114 15.2025C10.0363 15.357 9.52516 15.357 9.05013 15.2025C8.50937 15.0266 8.04092 14.5581 7.10402 13.6213L4.22267 10.7399C3.28577 9.803 2.81733 9.33455 2.64145 8.79543C2.48695 8.3204 2.48695 7.80922 2.64145 7.33256C2.81733 6.79179 3.28577 6.32334 4.22267 5.38645L9.56132 0.0494408C9.88512 0.018211 10.2106 0.00341797 10.5377 0.00341797C10.8647 0.00341797 11.2181 0.0198547 11.5584 0.0527282C11.897 0.0856016 12.2339 0.136556 12.5692 0.202302C12.9029 0.268049 13.2333 0.351877 13.5604 0.450497C13.8858 0.549117 14.2063 0.664175 14.5219 0.794025C14.8375 0.923875 15.1449 1.07016 15.4457 1.23124C15.7465 1.39232 16.039 1.56655 16.3217 1.75557C16.6045 1.9446 16.8789 2.14841 17.1419 2.36373C17.4049 2.5807 17.658 2.80917 17.898 3.04914C18.1396 3.29076 18.3681 3.54225 18.5834 3.80523C18.7988 4.06822 19.0026 4.34272 19.1916 4.62543C19.3806 4.90814 19.5565 5.20071 19.7159 5.5015C19.8162 5.69053 19.9115 5.88119 20.0003 6.07515V6.07843Z" fill="#5314CF"/>
<path d="M17.0087 10.3767C17.9456 11.3136 18.414 11.782 18.5899 12.3228C18.7444 12.7978 18.7444 13.309 18.5899 13.784C18.414 14.3248 17.9456 14.7932 17.0087 15.7301L12.0284 20.7105C11.8722 20.7335 11.7144 20.7515 11.5566 20.768C11.218 20.8009 10.8778 20.8173 10.5359 20.8173C10.194 20.8173 9.85543 20.8009 9.51519 20.768C9.1766 20.7351 8.83964 20.6842 8.50433 20.6184C8.17067 20.5527 7.84029 20.4688 7.5132 20.3702C7.18775 20.2716 6.86724 20.1565 6.55165 20.0267C6.23606 19.8968 5.9287 19.7505 5.62791 19.5895C5.32711 19.4284 5.03454 19.2542 4.75183 19.0651C4.46912 18.8761 4.19462 18.6723 3.93163 18.457C3.66865 18.24 3.41552 18.0115 3.17555 17.7716C2.93393 17.5299 2.70545 17.2785 2.49013 17.0155C2.27317 16.7525 2.071 16.478 1.88197 16.1953C1.69295 15.9126 1.51708 15.62 1.35764 15.3192C1.30998 15.2304 1.26395 15.1417 1.21957 15.0513L8.77225 7.49861C9.70915 6.56171 10.1776 6.09327 10.7184 5.91739C11.1934 5.76289 11.7046 5.76289 12.1796 5.91739C12.7204 6.09327 13.1888 6.56171 14.1257 7.49861L17.0071 10.38L17.0087 10.3767Z" fill="#5314CF"/>
<path d="M10.5377 0.509766C10.8615 0.509766 11.1853 0.526202 11.5075 0.557432C11.8296 0.588662 12.1501 0.636328 12.469 0.700432C12.7862 0.762891 13.1018 0.841788 13.4108 0.937121C13.7215 1.03081 14.0256 1.14094 14.3264 1.26421C14.6255 1.38913 14.9181 1.5272 15.2041 1.68006C15.4901 1.83292 15.7679 1.99893 16.0374 2.17974C16.307 2.36054 16.5667 2.55285 16.8182 2.75831C17.0697 2.96377 17.3096 3.18073 17.5381 3.41085C17.7682 3.64096 17.9852 3.8793 18.1906 4.13078C18.3961 4.38062 18.5884 4.64196 18.7692 4.91152C18.95 5.18109 19.116 5.45887 19.2689 5.74487C19.4218 6.03086 19.5598 6.32344 19.6847 6.62259C19.808 6.92174 19.9181 7.22746 20.0118 7.53811C20.1055 7.84877 20.1844 8.16271 20.2485 8.47994C20.311 8.79717 20.3587 9.11768 20.3915 9.44149C20.4228 9.76365 20.4392 10.0874 20.4392 10.4113C20.4392 10.7351 20.4228 11.0589 20.3915 11.381C20.3603 11.7032 20.3126 12.0237 20.2485 12.3426C20.1861 12.6598 20.1072 12.9754 20.0118 13.2844C19.9181 13.595 19.808 13.8991 19.6847 14.1999C19.5598 14.4991 19.4218 14.7916 19.2689 15.0776C19.116 15.3636 18.95 15.6414 18.7692 15.911C18.5884 16.1805 18.3961 16.4402 18.1906 16.6917C17.9852 16.9432 17.7682 17.1815 17.5381 17.4117C17.308 17.6418 17.0697 17.8587 16.8182 18.0642C16.5683 18.2697 16.307 18.462 16.0374 18.6428C15.7679 18.8236 15.4901 18.9896 15.2041 19.1424C14.9181 19.2953 14.6255 19.4334 14.3264 19.5583C14.0272 19.6832 13.7215 19.7917 13.4108 19.8854C13.1002 19.9791 12.7862 20.058 12.469 20.1221C12.1501 20.1845 11.8313 20.2322 11.5075 20.2651C11.1853 20.2963 10.8615 20.3127 10.5377 20.3127C10.2139 20.3127 9.8901 20.2963 9.56794 20.2651C9.24578 20.2338 8.92526 20.1862 8.60639 20.1221C8.28751 20.0596 7.97357 19.9807 7.66456 19.8854C7.35391 19.7917 7.04983 19.6816 6.74904 19.5583C6.44989 19.4334 6.15731 19.2953 5.87131 19.1424C5.58532 18.9896 5.30753 18.8236 5.03797 18.6428C4.76841 18.462 4.50871 18.2697 4.25723 18.0642C4.00739 17.8587 3.76741 17.6418 3.5373 17.4117C3.30883 17.1815 3.09022 16.9432 2.88476 16.6917C2.6793 16.4419 2.48535 16.1805 2.30619 15.911C2.12538 15.6414 1.95937 15.3636 1.80651 15.0776C1.65365 14.7916 1.51558 14.4991 1.39066 14.1999C1.26739 13.9008 1.15726 13.595 1.06357 13.2844C0.969881 12.9737 0.890985 12.6598 0.826881 12.3426C0.762778 12.0237 0.716755 11.7048 0.683882 11.381C0.652652 11.0589 0.636215 10.7351 0.636215 10.4113C0.636215 10.0874 0.652652 9.76365 0.683882 9.44149C0.715112 9.11933 0.762778 8.79881 0.826881 8.47994C0.889341 8.16106 0.968237 7.84712 1.06357 7.53811C1.15726 7.22746 1.26739 6.92338 1.39066 6.62259C1.51394 6.32344 1.65365 6.03086 1.80651 5.74487C1.95937 5.45887 2.12538 5.18109 2.30619 4.91152C2.48699 4.64196 2.6793 4.38226 2.88476 4.13078C3.09022 3.8793 3.30718 3.64096 3.5373 3.41085C3.76741 3.18073 4.00739 2.96377 4.25723 2.75831C4.50871 2.55285 4.76841 2.36054 5.03797 2.17974C5.30753 1.99893 5.58532 1.83292 5.87131 1.68006C6.15731 1.5272 6.44989 1.38913 6.74904 1.26421C7.04818 1.13929 7.35391 1.03081 7.66456 0.937121C7.97522 0.843431 8.28916 0.764535 8.60639 0.700432C8.92526 0.636328 9.24413 0.590306 9.56794 0.557432C9.8901 0.526202 10.2139 0.509766 10.5377 0.509766Z" stroke="#AECD60"/>
<path d="M13.4863 7.20756C13.8002 7.27659 14.1027 7.33576 14.4002 7.41137C14.7157 7.49191 15.0297 7.59053 15.3436 7.67765C15.388 7.6908 15.4061 7.70723 15.4061 7.75819C15.4061 8.73782 15.4143 9.71745 15.4012 10.6971C15.3864 11.7507 15.0543 12.7024 14.415 13.539C13.7016 14.4726 12.768 15.0742 11.6256 15.347C11.1753 15.4555 10.7167 15.49 10.2548 15.4637C9.15684 15.3996 8.18543 15.0117 7.35374 14.2951C6.49738 13.5571 5.95661 12.6284 5.738 11.5156C5.67555 11.2 5.65253 10.8779 5.65253 10.5557C5.65253 9.62869 5.65253 8.70166 5.64925 7.77463C5.64925 7.71217 5.66897 7.6908 5.72486 7.67436C6.32315 7.48369 6.93296 7.33248 7.54933 7.21906C7.55426 7.21906 7.56084 7.21906 7.57563 7.21906V7.29139C7.57563 8.45511 7.5707 9.62047 7.57892 10.7825C7.58385 11.3693 7.66275 11.9496 7.86163 12.5051C8.01942 12.9473 8.25447 13.3401 8.60293 13.6606C8.93002 13.9581 9.31464 14.1471 9.74528 14.2392C10.3534 14.3707 10.96 14.3608 11.5566 14.1718C12.2617 13.9499 12.7499 13.4815 13.0639 12.8207C13.2315 12.469 13.3334 12.0942 13.3959 11.7112C13.4666 11.2839 13.483 10.8532 13.483 10.4209V7.30453C13.483 7.27659 13.483 7.25194 13.483 7.2092L13.4863 7.20756ZM11.3857 9.3657H9.67296V5.35843C9.85212 5.30254 11.0471 5.29761 11.3857 5.35349V9.3657Z" fill="white"/>
<path d="M54.003 11.1574C54.003 12.515 53.2518 13.1413 52.1342 13.1413C51.0165 13.1413 50.2899 12.5249 50.2899 11.1574V6.67835H47.877V11.2445C47.877 14.2195 50.3162 15.3882 52.1457 15.3882C53.9751 15.3882 56.4192 14.2195 56.4192 11.2445V6.67835H54.0063L54.0014 11.1574H54.003ZM33.822 11.1574C33.822 12.515 33.0708 13.1413 31.9613 13.1413C30.8519 13.1413 30.1089 12.5249 30.1089 11.1574V6.67835H27.696V11.2445C27.696 14.2195 30.127 15.3882 31.9646 15.3882C33.8023 15.3882 36.23 14.2195 36.23 11.2445V6.67835H33.8171L33.822 11.1574ZM68.492 6.51727C66.9634 6.51727 65.8112 7.15173 65.2424 8.11821C64.6589 7.15337 63.3982 6.51727 62.0866 6.51727C59.5093 6.51727 58.1664 8.19217 58.1664 10.2648V15.232H60.5793V10.6166C60.5793 9.62545 61.0889 8.75595 62.2592 8.75595C62.4959 8.7428 62.7391 8.77732 62.9577 8.86608C63.1829 8.95484 63.3851 9.08633 63.5527 9.25892C63.722 9.4315 63.8503 9.6386 63.9374 9.86707C64.0196 10.0955 64.059 10.3388 64.0409 10.5804V15.2353H66.4538V10.5755C66.4538 9.58436 67.0275 8.74609 68.1846 8.74609C69.3418 8.74609 69.899 9.61888 69.899 10.6067V15.2222H72.3119V10.2681C72.3119 8.1971 71.0693 6.52056 68.4739 6.52056L68.492 6.51562V6.51727ZM45.8438 8.75924V6.67835H38.0101V8.75924H42.6452L37.8194 13.1495V15.2304H46.1331V13.1495H41.0262L45.8438 8.75924Z" fill="#5314CF"/>
<path d="M102.179 6.51719H104.592V8.05074H104.725C104.868 7.76474 105.075 7.50833 105.343 7.28315C105.568 7.09741 105.869 6.91332 106.254 6.74895C106.638 6.58623 107.13 6.49747 107.74 6.49747C108.231 6.49747 108.69 6.56815 109.12 6.7095C109.553 6.85086 109.922 7.07111 110.243 7.37026C110.562 7.66941 110.808 8.05403 110.989 8.51097C111.167 8.96955 111.257 9.51525 111.257 10.1546V15.0511H108.844V10.8499C108.844 10.1185 108.65 9.57607 108.262 9.21939C107.874 8.86272 107.355 8.6852 106.721 8.6852C106.017 8.6852 105.486 8.88737 105.128 9.29336C104.774 9.69935 104.589 10.2187 104.589 10.8499V15.0511H102.176V6.51226H102.181L102.179 6.51719ZM99.3684 12.0531V6.51226H96.9818L96.9949 7.86172C96.4772 7.06783 95.5616 6.33639 93.9426 6.33639C91.1549 6.33639 89.7249 8.55371 89.7249 10.771C89.674 13.0196 91.2914 15.25 93.8259 15.25C95.1721 15.25 96.39 14.632 96.9818 13.5751C97.1198 14.0206 97.396 14.4085 97.7757 14.6764C98.1504 14.946 98.6041 15.0774 99.0627 15.0511H100.443V12.9801H100.059C99.5837 12.9801 99.3684 12.7993 99.3684 12.0597V12.0547V12.0531ZM94.4489 13.1165C93.0846 13.1165 92.054 12.1517 92.054 10.794C92.054 9.43636 93.0895 8.50604 94.4489 8.50604C95.8082 8.50604 96.8881 9.44458 96.8881 10.794C96.8881 12.1435 95.8657 13.1165 94.4489 13.1165ZM83.7387 15.2582C80.8508 15.2582 78.7912 13.8661 78.7912 10.4719V3.85938H81.2041V7.40313C81.8945 6.70622 82.8133 6.36762 84.1348 6.36762C87.0145 6.36762 88.6187 8.37783 88.6187 10.8072C88.6187 13.7033 86.408 15.2582 83.7535 15.2582H83.7354H83.7387ZM83.7124 8.48796C82.3399 8.48796 81.2995 9.4528 81.2995 10.8105C81.2995 12.1681 82.3317 13.0985 83.7124 13.0985C85.0931 13.0985 86.1516 12.1501 86.1516 10.8105C86.1516 9.47088 85.1292 8.48796 83.7124 8.48796ZM112.993 15.0692H115.401V10.8779L119.152 15.0692H122L118.111 10.679L121.698 6.51719H118.866L115.396 10.5195V3.87252H112.988V15.0676H112.993V15.0692Z" fill="#5314CF"/>
</svg>